<svg width="28" height="28" xmlns="http://www.w3.org/2000/svg">
    <g>
        <defs>
            <linearGradient id="myGradient" x1="0%" y1="0%" x2="100%" y2="100%">
                <stop offset="0%" stop-color="#38c495"/>
                <stop offset="100%" stop-color="#28c4f5"/>
            </linearGradient>
        </defs>
        <rect fill="url(#myGradient)" rx="6" height="28" width="28"/>
        <svg x="5" y="5" viewBox="0 0 1024 1024" xmlns="http://www.w3.org/2000/svg" width="18" height="18">
            <path d="M843.52 308.48l0.426667-0.426667-158.72-158.72L640 194.56l90.026667 90.026667c-40.106667 15.36-68.693333 53.76-68.693334 99.413333a106.666667 106.666667 0 0 0 106.666667 106.666667c15.36 0 29.44-3.413333 42.666667-8.96v307.626666c0 23.466667-19.2 42.666667-42.666667 42.666667s-42.666667-19.2-42.666667-42.666667V597.333333c0-46.933333-38.4-85.333333-85.333333-85.333333h-42.666667V213.333333c0-46.933333-38.4-85.333333-85.333333-85.333333H256c-46.933333 0-85.333333 38.4-85.333333 85.333333v682.666667h426.666666v-320h64v213.333333a106.666667 106.666667 0 0 0 213.333334 0V384c0-29.44-11.946667-56.32-31.146667-75.52zM512 426.666667H256V213.333333h256v213.333334z m256 0c-23.466667 0-42.666667-19.2-42.666667-42.666667s19.2-42.666667 42.666667-42.666667 42.666667 19.2 42.666667 42.666667-19.2 42.666667-42.666667 42.666667z" fill="#fff"></path>
        </svg>
    </g>
</svg>