<svg width="28" height="28" xmlns="http://www.w3.org/2000/svg">
    <g>
        <rect fill="#f660ff" rx="6" height="28" width="28"/>
        <svg x="6" y="5" viewBox="0 0 1024 1024" width="18" height="18">
            <path d="M585.813333 104.106667c-10.026667-10.026667-23.68-15.786667-37.76-15.786667L186.453333 87.466667h-0.213333c-19.84 0-38.613333 7.68-52.693333 21.76-14.08 14.293333-21.76 33.066667-21.76 52.906666v704c0 41.173333 33.493333 74.666667 74.453333 74.666667l507.733333 0.853333h0.213334c19.84 0 38.613333-7.68 52.693333-21.76 14.08-14.08 21.973333-32.853333 21.973333-52.906666v-65.706667c0-17.706667-14.293333-32-32-32s-32 14.293333-32 32v65.706667c0 3.84-1.92 6.4-3.2 7.466666s-3.626667 3.2-7.466666 3.2l-507.733334-0.853333c-5.76 0-10.666667-4.693333-10.666666-10.666667v-704c0-3.84 1.92-6.4 3.2-7.466666a9.813333 9.813333 0 0 1 7.466666-3.2l308.266667 0.64v132.906666c0 41.173333 33.493333 74.666667 74.666667 74.666667h135.466666v63.36c0 17.706667 14.293333 32 32 32s32-14.293333 32-32v-112.213333c0-14.293333-5.546667-27.52-15.573333-37.546667l-167.466667-169.173333z m-16.426666 191.573333c-5.973333 0-10.666667-4.693333-10.666667-10.666667v-117.333333l126.72 128h-116.053333z"
                  fill="#ffffff"></path>
            <path d="M344.32 704v-73.386667l60.16-126.506666h-51.413333l-20.266667 49.493333c-3.626667 9.813333-7.466667 18.986667-11.52 28.8l-0.853333 2.133333-11.946667-30.933333-20.266667-49.28h-52.266666l59.946666 126.506667V704h48.426667zM444.373333 655.36h53.333334l13.226666 48.64h50.986667l-64.426667-200.106667h-52.266666l-64 200.106667h49.706666l13.44-48.64z m14.933334-53.973333c4.053333-14.293333 8.106667-29.226667 11.733333-43.733334 0.426667 2.133333 1.066667 4.053333 1.706667 6.186667 3.413333 12.8 6.613333 25.6 10.24 37.546667l3.84 14.08h-31.146667l3.626667-14.08zM709.12 704h45.226667v-200.106667h-50.986667l-32.64 92.16c-2.133333 6.4-4.266667 13.013333-6.186667 19.84-0.213333 0.853333-0.426667 1.706667-0.853333 2.56-2.346667-7.68-4.693333-15.146667-7.253333-22.4l-33.493334-91.946666h-51.2V704h44.586667v-84.48c0-6.4-0.426667-13.653333-0.853333-21.333333l32.64 88.533333h29.226666l30.506667-83.2 2.346667-6.826667c-0.64 8.106667-0.853333 16-0.853334 22.826667V704zM838.826667 661.546667v-157.44h-48.426667V704h125.226667v-42.453333z"
                  fill="#ffffff"></path>
        </svg>
    </g>
</svg>