<svg width="28" height="28" xmlns="http://www.w3.org/2000/svg">
    <g>
        <rect fill="#27be60" rx="6" height="28" width="28"/>
        <svg x="4.5" y="4.5" viewBox="0 0 1024 1024" xmlns="http://www.w3.org/2000/svg" width="20" height="20">
            <path d="M880 358.186667a51.306667 51.306667 0 0 0-36.266667-14.986667h-21.866666V237.546667a13.12 13.12 0 0 0 0-1.973334 17.28 17.28 0 0 0-4.213334-11.573333l-176.533333-147.573333a18.613333 18.613333 0 0 0-4.746667-3.68 17.44 17.44 0 0 0-3.573333-1.493334l-0.96-0.32a17.653333 17.653333 0 0 0-4.106667-0.48H193.653333a35.893333 35.893333 0 0 0-35.893333 35.733334v237.013333h-21.973333a51.253333 51.253333 0 0 0-51.306667 51.146667v265.76a51.2 51.2 0 0 0 51.306667 51.146666h21.973333v133.973334a35.893333 35.893333 0 0 0 35.893333 35.786666h592.32a35.893333 35.893333 0 0 0 35.893334-35.786666v-133.973334h21.973333a51.2 51.2 0 0 0 51.306667-51.093333V394.346667a50.986667 50.986667 0 0 0-15.146667-36.16zM213.333333 121.813333h394.666667v113.973334a17.92 17.92 0 0 0 17.973333 17.866666h142.56v79.2H213.333333z m437.333334 397.333334q0 54.933333-24.853334 85.973333a81.013333 81.013333 0 0 1-66.506666 30.986667 81.706667 81.706667 0 0 1-67.04-30.826667q-24.853333-30.88-24.906667-85.013333a170.08 170.08 0 0 1 8.64-58.186667 111.306667 111.306667 0 0 1 17.6-31.093333A75.946667 75.946667 0 0 1 518.24 410.666667a89.013333 89.013333 0 0 1 40.746667-8.96 81.546667 81.546667 0 0 1 66.826666 31.093333Q650.933333 464 650.666667 519.146667z m-249.76 33.493333a31.253333 31.253333 0 0 0-13.706667-9.813333c-4.48-1.866667-14.666667-5.333333-30.56-9.866667q-30.613333-9.12-43.04-22.453333a64.426667 64.426667 0 0 1-17.386667-45.6 66.986667 66.986667 0 0 1 8.16-32.426667 54.506667 54.506667 0 0 1 23.573334-22.986667 80.64 80.64 0 0 1 37.333333-7.893333q35.52 0 53.333333 18.72a72.106667 72.106667 0 0 1 18.88 49.973333l-38.133333 2.026667a42.346667 42.346667 0 0 0-10.666667-25.173333 34.133333 34.133333 0 0 0-24.213333-7.626667A38.293333 38.293333 0 0 0 338.933333 448a17.653333 17.653333 0 0 0-6.026666 14.026667 18.933333 18.933333 0 0 0 5.653333 13.813333c4.8 4.853333 16.48 9.866667 35.04 15.146667a162.986667 162.986667 0 0 1 41.226667 16.32 58.133333 58.133333 0 0 1 20.853333 23.04 78.293333 78.293333 0 0 1 7.573333 36.106666 76.746667 76.746667 0 0 1-9.066666 36.533334 57.813333 57.813333 0 0 1-25.493334 25.28 91.52 91.52 0 0 1-41.12 8.266666q-35.84 0-55.04-19.893333t-22.933333-57.92l37.333333-4.32a58.666667 58.666667 0 0 0 13.6 32.96 36.906667 36.906667 0 0 0 27.626667 10.666667 37.333333 37.333333 0 0 0 27.786667-9.386667 29.813333 29.813333 0 0 0 9.333333-21.866667 23.2 23.2 0 0 0-4.16-14.133333z m-247.946667 64.693333q-15.146667-18.773333-15.253333-55.146666l36-4.96a70.933333 70.933333 0 0 0 4.746666 27.52 19.946667 19.946667 0 0 0 18.88 12.213333 19.253333 19.253333 0 0 0 18.026667-8.746667c3.52-5.813333 5.333333-17.866667 5.333333-36.266666V405.333333h37.973334v143.52a172.693333 172.693333 0 0 1-4.16 43.306667A61.013333 61.013333 0 0 1 234.666667 624a58.666667 58.666667 0 0 1-38.4 12 51.893333 51.893333 0 0 1-43.306667-18.666667z m615.946667 202.666667H213.333333V721.6h555.573334z m62.08-187.573333h-38.293334l-76.16-148.053334v147.893334h-35.466666V405.333333h37.333333l77.333333 151.413334V405.333333h35.466667z"
                  fill="#fff"></path>
            <path d="M559.36 440.746667a45.173333 45.173333 0 0 0-38.026667 19.413333q-14.4 19.413333-14.4 58.666667t14.826667 58.4a45.546667 45.546667 0 0 0 75.093333 0q14.56-19.733333 14.613334-59.2T597.333333 459.946667a44.853333 44.853333 0 0 0-37.973333-19.2z"
                  fill="#fff"></path>
        </svg>
    </g>
</svg>