<svg width="28" height="28" xmlns="http://www.w3.org/2000/svg">
    <g>
        <rect fill="#fd4e74" rx="6" height="28" width="28"/>
        <svg x="5" y="5" width="18" height="18" viewBox="0 0 1024 1024" xmlns="http://www.w3.org/2000/svg">
            <path d="M908.35 423.35s-24.76 39.53-24.76 112.59c0 19.18-5.89 233.53-5.89 276.03 0 18.24-8.15 18.24-26.96 18.24 0 0-2.99-224.28-2.99-246.71 0-47.06-8.16-63.47-8.16-63.47"
                  fill="#ffffff"></path>
            <path d="M850.74 845.3c-8.26 0-14.99-6.64-15.1-14.9-0.12-9.16-2.99-224.63-2.99-246.91 0-41.45-6.66-56.88-6.72-57.03-3.34-7.51-0.14-16.44 7.29-19.94 7.46-3.48 16.24-0.56 19.89 6.79 1.62 3.27 9.74 22.02 9.74 70.18 0 11.14 0.75 73.22 1.5 132.29 0.65-28.21 1.39-58.63 2.06-86.36 1.11-46.12 2.08-85.95 2.08-93.47 0-76.52 25.96-118.85 27.06-120.61 4.43-7.06 13.74-9.19 20.81-4.78 7.05 4.42 9.2 13.7 4.81 20.76-0.43 0.7-22.49 37.78-22.49 104.64 0 7.89-0.92 45.98-2.09 94.2-1.69 69.76-3.79 156.58-3.79 181.82 0 33.32-24.31 33.32-42.06 33.32z"
                  fill="#ffffff"></path>
            <path d="M670.69 478.49S612.94 422.13 626.17 367c13.23-55.13 108.02-203.58 167.56-233.67 59.54-30.1 88.21 57.34 105.85 97.03s74.98 125.9-11.15 211.71c-90.18 89.85-99.17 132.65-115.18 220.7-26.46 145.55-36.76 207.3-173.59 215.95-150.24 9.5-595.43 44.11-496.19-17.64s258.02-152.17 266.84-152.17 88.95 22.98 141.61 20.87c54.45-2.18 141.49-3.32 191.39-126.72 48.52-120 98.5-263.29 86.01-275.78-29.16-29.17-99.46 91.43-118.63 151.21z"
                  fill="#ffffff"></path>
            <path d="M218.3 911.97c-108.22 0-137.37-10.73-143.19-28.82-3.95-12.28 2.9-24.03 20.38-34.9 36.82-22.91 255.54-154.44 274.82-154.44 3.87 0 9.32 1.16 24.5 4.53 28.04 6.22 80.28 17.8 116.5 16.34l3.06-0.13c54.7-2.15 129.61-5.09 174.94-117.18 54.25-134.14 85.39-232.88 86.9-259.11-19.34 5.71-71.56 83.73-91.15 144.82a15.067 15.067 0 0 1-10.73 10.04 15.014 15.014 0 0 1-14.18-3.84c-2.61-2.55-63.72-63.08-48.66-125.82 13.31-55.43 109.15-210.13 175.43-243.63 17.22-8.69 34-10.15 49.87-4.33 36.35 13.35 56.36 60.89 70.98 95.6 2 4.73 3.86 9.16 5.62 13.11 1.79 4.05 4.03 8.59 6.47 13.58 22.35 45.63 63.93 130.58-20.77 214.95-88.29 87.97-95.4 127.05-110.98 212.7l-0.54 2.97c-26.14 143.83-39.26 216.02-186.95 225.36l-43.64 2.85c-159.09 10.58-266.49 15.35-338.68 15.35z m-108.09-37.29c57.36 17.55 335.87-0.94 444.76-8.18l43.74-2.86c124.11-7.85 132.94-56.42 159.15-200.62l0.54-2.97c16.9-92.96 28.22-137.88 119.38-228.7 69.37-69.12 36.63-136.01 14.95-180.28-2.62-5.36-5.01-10.25-6.94-14.59-1.83-4.11-3.77-8.72-5.85-13.65-11.77-27.93-29.54-70.15-53.56-78.97-7.82-2.88-16.27-1.9-25.83 2.93-54.28 27.43-146.78 169.92-159.7 223.72-6.96 29 10.68 59.83 24.82 78.8 21.92-51.44 67.95-131.6 105.28-140.64 10.98-2.67 21.29 0.16 29.04 7.93 6.24 6.24 25.24 25.24-82.68 292.11-52.65 130.17-145.98 133.84-201.75 136.03l-3.04 0.12c-40.16 1.57-94.89-10.52-124.25-17.03-6.19-1.38-13.03-2.9-16.59-3.54-22.12 9.24-160.21 87.37-260.23 149.61-0.43 0.27-0.85 0.53-1.24 0.78z m665.86-540.97z"
                  fill="#ffffff"></path>
            <path d="M366.44 725.24c-5.09 0-10.05-2.55-12.89-7.19-4.34-7.08-2.19-16.31 4.87-20.7 1.98-1.23 49.91-30.28 164.61-39.1 21.85-1.68 50.58-14.39 60.76-22.4 24.44-19.23 46.73-44.6 72.15-160.59 1.79-8.15 9.86-13.29 17.98-11.52 8.15 1.79 13.31 9.84 11.52 17.98-25.06 114.34-48.5 150.73-82.98 177.86-13.49 10.62-47.79 26.51-77.12 28.77-106.21 8.17-150.63 34.43-151.07 34.69-2.45 1.49-5.16 2.2-7.83 2.2z"
                  fill="#ffffff"></path>
        </svg>
    </g>
</svg>