<svg width="28" height="28" xmlns="http://www.w3.org/2000/svg">
    <g>
        <rect fill="#Fe7bda" rx="6" height="28" width="28"/>
        <svg x="4" y="4" viewBox="0 0 1024 1024" xmlns="http://www.w3.org/2000/svg" width="20" height="20">
            <path d="M511.29392 957.996882c-245.981852 0-446.099213-200.11736-446.099212-446.099212S265.312068 65.798457 511.29392 65.798457s446.099213 200.11736 446.099213 446.099213S757.265539 957.996882 511.29392 957.996882z m0-805.862254c-198.377743 0-359.752808 161.385298-359.752808 359.763042S312.916177 871.650478 511.29392 871.650478 871.056961 710.275413 871.056961 511.89767 709.671663 152.134628 511.29392 152.134628z"
                  fill="#ffffff"></path>
            <path d="M469.901267 583.979214v-0.839109h94.665867v0.839109a20.916337 20.916337 0 0 0 6.139825 14.776512 20.660511 20.660511 0 0 0 14.63325 5.8533H695.048647a47.542711 47.542711 0 0 0 47.399448-47.399449V520.861814h62.585282a20.916337 20.916337 0 1 0 0-41.822441h-62.585282v-37.401767a47.389215 47.389215 0 0 0-47.399448-47.389215H585.350442a20.752608 20.752608 0 0 0-20.762842 20.762841v1.023305h-94.686333v-0.83911a20.762841 20.762841 0 0 0-21.489387-20.773074H338.734141a47.399448 47.399448 0 0 0-47.399449 47.256186v37.360834h-60.784266a20.916337 20.916337 0 0 0 0 41.822441h61.480113v36.531958a47.665507 47.665507 0 0 0 47.389216 47.378983H448.432346a20.752608 20.752608 0 0 0 21.489387-20.762842z m-130.481512-20.916337a5.8533 5.8533 0 0 1-5.710038-5.710037V441.637606a5.8533 5.8533 0 0 1 5.710038-5.710037H360.223528v127.135308zM428.365352 435.927569v127.135308H401.872007V435.927569z m136.201782 21.745214V541.327897h-94.665867v-83.655114z m136.19155 99.680057a5.8533 5.8533 0 0 1-5.710037 5.710037h-19.800935V435.927569h19.800935a5.8533 5.8533 0 0 1 5.710037 5.710037z m-67.190151 5.710037h-27.885038V435.927569h27.885038z"
                  fill="#ffffff"></path>
        </svg>
    </g>
</svg>