<svg width="28" height="28" xmlns="http://www.w3.org/2000/svg">
    <g>
        <rect fill="#7e7bda" rx="6" height="28" width="28"/>
        <svg x="5" y="5.5" viewBox="0 0 1024 1024" xmlns="http://www.w3.org/2000/svg" width="18" height="18">
            <path d="M512 0.255933c-58.736655 0-348.261017 3.90298-348.261017 97.830442v614.23953c0 43.06075 66.542616 66.542616 140.763226 82.154537v202.123195a26.745013 26.745013 0 0 0 27.384846 27.384846 26.745013 26.745013 0 0 0 27.384845-27.384846v-194.317234a1328.356967 1328.356967 0 0 0 152.600133 7.80596 1327.269251 1327.269251 0 0 0 152.600134-7.80596v194.317234a26.745013 26.745013 0 0 0 27.448829 27.384846 26.745013 26.745013 0 0 0 27.384845-27.384846v-202.123195c74.348576-11.708941 140.763226-35.190806 140.763226-82.154537v-614.23953C860.261017 7.869944 570.672672 0.255933 512 0.255933z m142.874674 466.18221l-166.356539 214.280019c-10.557242 15.867855-31.991642 10.557242-29.112395-7.933927l15.867855-193.101552H384.993181a21.946267 21.946267 0 0 1-15.867855-37.046322l169.29977-214.280019c10.557242-15.867855 31.991642-10.557242 29.112395 7.933927l-18.555153 193.101552h89.960498a21.882283 21.882283 0 0 1 15.931838 36.790389zM512 141.019159c-160.470077 0-262.331466-23.481865-285.685365-43.060751 23.481865-19.578885 121.56824-43.06075 285.685365-43.06075s262.331466 23.481865 285.685365 43.06075A707.463175 707.463175 0 0 1 512 141.019159z"
                  fill="#fff"></path>
        </svg>
    </g>
</svg>