<svg width="28" height="28" xmlns="http://www.w3.org/2000/svg">
    <g>
        <rect fill="#776dff" rx="6" height="28" width="28"/>
        <svg viewBox="0 0 1024 1024" xmlns="http://www.w3.org/2000/svg" width="20" height="20" x="4" y="4">
            <path d="M512 896c-282.752 0-512-171.904-512-384s229.248-384 512-384 512 171.904 512 384-229.248 384-512 384z m-320.896-192l14.976-80.64h37.568c23.808 0 43.456-2.624 58.88-7.872 15.36-5.248 36.736-14.08 49.28-26.432 10.624-10.176 11.84-21.376 18.368-33.664 6.528-12.224 15.744-40.96 18.496-55.808 6.656-35.968 1.6-64-15.104-84.032-16.768-20.096-43.392-23.04-79.872-23.04H209.92a25.6 25.6 0 0 0-25.152 20.672L128 704h63.104z m86.144-261.248c24 0 30.848 4.672 38.848 13.952 7.936 9.216 9.856 25.152 5.696 47.68-4.352 23.488-15.68 46.016-28.16 56.064-12.416 9.984-22.208 15.04-47.68 15.04H215.04l26.432-132.736h35.84z m252.544-136.448h-62.656l-60.672 334.464h68.032l34.56-206.4h31.04c16 0 26.496 2.752 31.36 8.32 4.992 5.568 6.016 16 3.2 31.232l-27.2 166.848h63.616l28.416-173.76c5.376-28.8 1.344-49.536-11.968-62.336-13.312-12.8-37.504-19.2-72.64-19.2h-36.8l11.712-79.168zM702.72 704l14.976-80.64h42.112c23.808 0 43.456-2.624 58.88-7.872 15.36-5.248 29.376-14.08 41.984-26.432 10.56-10.176 19.136-21.376 25.664-33.664 6.528-12.224 15.744-40.96 18.496-55.808 6.656-35.968 1.6-56.96-15.104-76.992-16.768-20.096-43.392-30.08-79.872-30.08h-88.32a25.6 25.6 0 0 0-25.152 20.672L639.616 704h63.104z m81.536-261.248c24 0 40 4.672 48 13.952 7.936 9.216 9.856 25.152 5.696 47.68-4.352 23.488-15.68 46.016-28.16 56.064-12.416 9.984-31.36 15.04-56.768 15.04h-26.432l26.432-132.736h31.232z"
                  fill="#fff"></path>
        </svg>
    </g>
</svg>