<svg width="28" height="28" xmlns="http://www.w3.org/2000/svg">
    <g>
        <rect fill="#568Eff" rx="6" height="28" width="28"/>
        <svg x="5" y="5" viewBox="0 0 1024 1024" xmlns="http://www.w3.org/2000/svg" width="18" height="18">
            <path d="M716.8 102.4c112.93184 0 204.8 91.87328 204.8 204.8v409.6c0 112.92672-91.86816 204.8-204.8 204.8H307.2c-112.93184 0-204.8-91.87328-204.8-204.8V307.2c0-112.92672 91.86816-204.8 204.8-204.8h409.6m0-51.2H307.2c-141.37856 0-256 114.61632-256 256v409.6c0 141.38368 114.62144 256 256 256h409.6c141.3888 0 256-114.61632 256-256V307.2c0-141.38368-114.6112-256-256-256z"
                  fill="#fff"></path>
            <path d="M680.96 138.24h-102.4v102.4c0 113.10592 91.68896 204.8 204.8 204.8h102.4V343.04c0-113.10592-91.68896-204.8-204.8-204.8zM368.65024 749.568l-29.952-56.06912-29.952 56.06912H257.54112l56.84224-93.44512-53.248-88.83712h50.944l26.624 51.456 26.624-51.456h50.944l-53.248 88.83712L419.86048 749.568H368.65024zM563.47136 749.568v-87.30112l-25.86112 45.06112h-28.67712l-25.856-45.06112V749.568H438.272v-182.28224h44.03712l40.96 80.38912 40.96512-80.38912h44.03712V749.568h-44.8zM645.12 749.568v-182.28224h44.80512V709.632h76.54912v39.936H645.12z"
                  fill="#fff"></path>
        </svg>
    </g>
</svg>
