<svg width="28" height="28" xmlns="http://www.w3.org/2000/svg">
    <g>
        <rect fill="#22bb99" rx="6" height="28" width="28"/>
        <svg x="5" y="5" viewBox="0 0 1024 1024" width="18" height="18">
            <path d="M883.346286 188.854857c-16.822857-9.947429-40.521143-23.186286-57.417143-33.133714-20.260571-9.947429-40.521143-23.186286-60.708572-33.133714C724.699429 99.401143 687.542857 79.506286 647.021714 56.32 626.834286 46.372571 606.500571 33.133714 589.677714 23.186286A142.848 142.848 0 0 0 512 0h-6.729143c-23.625143 0-57.417143 9.947429-70.948571 19.894857-20.187429 13.238857-40.448 23.186286-57.344 33.133714-37.156571 23.186286-77.677714 46.372571-118.198857 66.267429-20.187429 13.165714-43.885714 26.477714-60.708572 36.425143-16.896 13.238857-40.521143 23.186286-57.417143 33.133714C110.299429 208.749714 73.142857 258.413714 73.142857 308.077714v344.649143c0 49.664 37.156571 99.401143 67.510857 119.222857 33.792 23.186286 77.677714 43.154286 118.125715 66.267429 40.521143 23.186286 81.042286 43.154286 118.198857 66.267428 20.260571 13.238857 40.521143 23.186286 57.344 33.133715 16.896 9.947429 43.885714 19.894857 70.948571 19.894857h13.458286c43.885714 0 97.938286-36.425143 128.292571-56.32 37.156571-23.186286 77.677714-43.081143 118.198857-66.267429 37.083429-23.186286 80.969143-43.081143 118.125715-66.267428 30.354286-19.894857 67.510857-69.558857 67.510857-115.931429V304.786286c0-46.372571-37.156571-96.036571-67.510857-115.931429zM731.428571 447.268571c-33.792 33.133714-81.042286 49.737143-141.750857 49.737143-16.896 0-37.156571-3.364571-54.052571-6.656h-3.364572v281.6h-40.521142v-231.862857h-30.354286c-23.625143 0-40.521143-6.656-64.146286-13.312-27.062857-9.947429-57.417143-23.186286-81.042286-46.372571a143.140571 143.140571 0 0 1-43.885714-56.32c-10.093714-16.530286-13.531429-36.425143-20.260571-56.32-6.729143-36.425143-3.364571-62.902857-3.364572-62.902857v-13.312l13.531429-3.291429c13.458286-3.291429 26.989714-3.291429 43.885714-3.291429 50.614857 0 97.865143 13.165714 141.750857 39.716572 23.625143 13.238857 40.521143 33.133714 54.052572 56.32 6.729143 9.947429 10.093714 19.894857 16.822857 33.133714 3.364571-3.291429 3.364571-9.947429 6.802286-13.238857 23.625143-49.737143 50.614857-79.506286 80.969142-92.745143 40.521143-16.603429 84.406857-19.894857 111.396572-19.894857 13.531429 0 27.062857 0 40.521143 3.291429l13.531428 3.291428 3.364572 13.312S788.845714 387.657143 731.428571 447.268571z"
                  fill="#ffffff"></path>
        </svg>
    </g>
</svg>