<svg width="28" height="28" xmlns="http://www.w3.org/2000/svg">
    <g>
        <defs>
            <linearGradient id="myGradient" x1="0%" y1="0%" x2="100%" y2="100%">
                <stop offset="0%" stop-color="#fb730e"/>
                <stop offset="100%" stop-color="#FE4665"/>
            </linearGradient>
        </defs>
        <rect fill="url(#myGradient)" rx="6" height="28" width="28"/>
        <svg x="5" y="5" viewBox="0 0 1024 1024" width="18" height="18">
            <path d="M745.4 625.2l28.6-68.6h82.4l-39.2-104 49-117.4 140.2 353h-103.4l-24-63.2h-133.6zM192.8 416.6c8.8 8.4 13.2 19.8 13.2 34s-3.8 25.6-11.6 34c-8.6 9.4-24.2 14-47.2 14H111.8V404h35.6c21.4 0 36.6 4.2 45.4 12.6z m-81 150.8h61.2c16.8 0.2 33.2-1.8 49.4-6l15.8-46.4 44.2-129.4c-3.4-5.2-7.2-10-11.6-14.4-22.6-23.8-55.8-35.8-99.4-35.8H17.6v353h94.2v-121z m544.4 121.2l150-353h-99.4l-102.6 228.2-73-228.2h-76.4l-78.4 228.2-55.2-104-50 146.2 50.8 82.8h97.8L490.6 484l67.6 204.6h98z"
                  fill="#fff"></path>
        </svg>
    </g>
</svg>