<svg width="28" height="28" xmlns="http://www.w3.org/2000/svg">
    <g>
        <rect fill="#05b095" rx="6" height="28" width="28"/>
        <svg viewBox="0 0 1024 1024" width="18" height="18" x="5" y="5">
            <path d="M344.062525 0.000997A301.113388 301.113388 0 0 0 298.800136 3.418549h90.523781A301.099435 301.099435 0 0 0 344.062525 0.000997zM940.706999 722.614524c2.781682-4.356408 4.963375-9.440378 6.292921-15.249919 1.455126-5.80954 2.056113-12.955604 2.056113-21.306631v-11.260283c0-10.164951-1.446156-19.970108-4.474014-29.409489-3.024868-9.444365-7.871633-17.796389-14.768531-25.061056-6.897895-7.25769-15.734296-13.06723-26.508208-17.429617-10.776902-4.354414-23.850111-6.537103-39.222619-6.537103h-69.84106v309.876036h65.244456c31.347996 0 54.108757-7.26367 68.271318-21.786025 14.278174-14.528336 21.299654-35.344609 21.299655-62.70297v-17.429618c0-16.583452-2.659093-29.533076-7.984256-39.215643-5.327156-9.68755-13.558584-16.825641-24.937469-21.792005 11.137693-5.684958 19.247528-12.587836 24.571694-20.695677z m-98.531956-84.488995h19.733899c15.975488 0 26.992585 3.511239 33.044314 10.408137 6.052726 7.021481 9.19819 17.427624 9.19819 31.354973 0 14.27917-2.784672 25.053082-8.226445 32.434357-5.451739 7.388252-16.224654 11.136696-32.200142 11.136697h-21.549816v-85.334164z m61.005654 192.339737c-0.601984 6.413517-2.298302 11.863263-5.199583 16.579465-2.784672 4.60358-7.023474 8.232425-12.472223 10.899491-5.442769 2.661086-13.07321 3.870037-22.75478 3.870037H842.054447v-99.25653h21.183045c8.718795 0 15.857882 0.968755 21.183045 2.783676 5.325163 1.936513 9.563964 4.844772 12.708431 8.957994 2.782679 4.115216 4.721186 8.959988 5.691935 14.771522 0.968755 5.808544 1.453133 12.582852 1.453132 20.454485-0.122589 7.625458-0.484378 14.646938-1.093338 20.93986zM703.69988 596.362419v108.33811h-0.962775c-5.81552-7.140084-12.588832-12.708432-20.580065-16.585446-7.990236-3.87203-17.067829-5.808544-27.23278-5.808543-12.833014 0-22.514585 1.812927-28.933086 5.566355-13.919376 7.146063-21.784032 18.037581-23.841141 32.318744-0.969752 7.504862-1.578712 19.125936-1.578712 34.983818v83.277055c0 12.105451 0.726566 21.666426 2.062092 28.930095 1.329547 7.14108 3.506255 13.192809 6.65471 18.158177 8.47561 13.800773 23.48334 20.698668 45.269365 20.698668 6.416507 0 11.984855-0.60298 16.709031-1.698311 4.714209-1.204964 8.954008-2.781682 12.706439-4.71421 3.753427-1.938507 7.139087-4.362388 10.165948-7.14706 3.024868-2.783676 6.292921-5.684958 9.68755-8.834408v19.851505h51.685873V596.362419h-51.812449z m0.12558 238.703437h-0.12558c0 8.108839-2.417901 14.644945-7.13809 19.610313-4.723179 5.081977-11.017097 7.498882-18.759164 7.498881-8.836402 0-15.255899-2.781682-19.251515-8.226444-4.113222-5.448749-6.049736-12.713415-6.049736-21.549817v-80.25119c0-6.897895 1.818907-12.949624 5.325163-18.15718 3.509245-5.20058 10.288537-7.748047 20.094691-7.748047 7.504862 0 13.677187 2.181692 18.523952 6.662682 4.958391 4.479994 7.381276 10.164951 7.381275 17.068826v85.091976zM552.152505 557.631153V325.224625c0-122.858472-99.8625-222.719975-222.720972-222.719976-122.858472 0-222.719975 99.861503-222.719975 222.719976V557.63215c0 112.935709 84.488995 206.503295 193.671277 220.782465v69.72445H135.760256c-15.973495 0-29.048698 13.07321-29.048698 29.048699 0 15.977482 13.075203 29.050692 29.048698 29.050691h387.341557c15.983462 0 29.050692-13.07321 29.050692-29.050691 0-15.974492-13.06723-29.048698-29.050692-29.048699H358.481228v-69.72445c109.183279-14.27917 193.671277-107.846755 193.671277-220.783462zM329.431533 722.253732c-90.782913 0-164.620585-73.838669-164.620585-164.622579h329.243164c-0.000997 90.783909-73.839666 164.622579-164.622579 164.622579zM634.826579 400.516426c5.691934 5.685954 13.07321 8.470627 20.580065 8.470627 7.504862 0 14.888131-2.784672 20.573088-8.470627 41.520921-41.518928 41.520921-109.063679 0-150.57862-11.376892-11.376892-29.775264-11.376892-41.029567 0-11.258289 11.378885-11.375895 29.777258 0 41.030564 18.884743 18.883747 18.884743 49.627766 0 68.512509a28.823453 28.823453 0 0 0-0.123586 41.035547z"
                  fill="#ffffff"></path>
            <path d="M758.052819 167.749106c-11.377889-11.376892-29.776261-11.376892-41.036543 0-11.254302 11.378885-11.377889 29.776261 0 41.029567 31.113781 31.112784 48.174634 72.38454 48.174633 116.445952s-17.060853 85.341141-48.174633 116.445951c-11.377889 11.378885-11.377889 29.776261 0 41.036544 5.691934 5.685954 13.07321 8.46963 20.580064 8.46963 7.505858 0 14.888131-2.783676 20.574085-8.46963 42.005299-42.123901 65.12685-97.92798 65.126851-157.482495 0-59.552522-23.122548-115.351617-65.244457-157.475519z m0 0"
                  fill="#ffffff"></path>
        </svg>
    </g>
</svg>