<svg width="28" height="28" xmlns="http://www.w3.org/2000/svg">
    <g>
        <rect fill="#169e86" rx="6" height="28" width="28"/>
        <svg x="5" y="5" viewBox="0 0 1024 1024" xmlns="http://www.w3.org/2000/svg" width="18" height="18">
            <path d="M512.117816 125.183158a386.367772 386.367772 0 1 0 386.367772 386.367772 386.367772 386.367772 0 0 0-386.367772-386.367772z m359.322028 373.120877h-22.961285a13.578067 13.578067 0 1 0 0 27.156135h22.961285a357.224603 357.224603 0 0 1-41.396547 154.547109l-19.870343-11.039079a13.578067 13.578067 0 0 0-13.578067 23.513238l19.870342 11.03908a359.432419 359.432419 0 0 1-608.694827 0l19.870343-11.03908a13.578067 13.578067 0 0 0-13.578068-23.513238l-19.870342 11.039079a357.224603 357.224603 0 0 1-41.396547-154.547109h23.071675a13.578067 13.578067 0 1 0 0-27.156135h-23.071675a357.666166 357.666166 0 0 1 41.396547-154.547109l19.870342 11.591034a13.578067 13.578067 0 0 0 13.578068-23.62363l-19.870343-11.039079A363.406487 363.406487 0 0 1 320.36901 207.534689l11.039079 19.870343a13.578067 13.578067 0 0 0 23.62363-13.578068l-11.591033-19.870342a357.666166 357.666166 0 0 1 154.547108-41.396547v23.071675a13.578067 13.578067 0 0 0 27.156135 0v-23.071675a357.224603 357.224603 0 0 1 154.547109 41.396547l-11.039079 19.870342a13.578067 13.578067 0 1 0 23.513239 13.578068l11.039079-19.870343A363.075315 363.075315 0 0 1 816.465229 320.133297l-19.870342 11.039079a13.578067 13.578067 0 0 0 13.578067 23.62363l19.870343-11.591034a357.666166 357.666166 0 0 1 41.396547 155.099063z"
                  fill="#ffffff"></path>
            <path d="M418.285643 745.137846m31.240594 0l125.293549 0q31.240594 0 31.240594 31.240594l0 0.110391q0 31.240594-31.240594 31.240594l-125.293549 0q-31.240594 0-31.240594-31.240594l0-0.110391q0-31.240594 31.240594-31.240594Z"
                  fill="#ffffff"></path>
            <path d="M667.327269 562.993039c-4.19485 51.331718-35.877007 102.553046-113.150561 124.631205-35.766617 11.039079-31.350985-14.240412-22.078159-18.766435 59.831809-31.019813 28.922388-89.19576 11.922206-102.773827S516.312666 518.836723 516.312666 518.836723a101.007575 101.007575 0 0 0-66.234475 85.332082 68.221509 68.221509 0 0 0 31.682157 64.247441c16.337837 2.318207 12.474159 28.260043-9.82478 18.766434-66.234475-15.675492-115.247987-68.111119-115.247987-130.481916v-5.850712s-7.948137-63.474705 63.033142-117.345412c37.64326-28.591215 50.007029-85.884036 51.994063-101.559528s13.026113-31.240594 23.071675-23.844411c73.520267 54.42266 173.975888 130.040353 173.092762 231.820663a165.586188 165.586188 0 0 1-0.551954 23.071675z"
                  fill="#ffffff"></path>
            <path d="M512.117816 0a511.992493 511.992493 0 1 0 511.882102 511.882103A512.434057 512.434057 0 0 0 512.117816 0z m0 960.399891A448.517788 448.517788 0 1 1 960.635604 511.882103 448.959351 448.959351 0 0 1 512.117816 960.399891z"
                  fill="#ffffff"></path>
        </svg>
    </g>
</svg>