<svg width="28" height="28" xmlns="http://www.w3.org/2000/svg">
    <g>
        <rect fill="#566Eff" rx="6" height="28" width="28"/>
        <svg x="6" y="6" viewBox="0 0 1024 1024" xmlns="http://www.w3.org/2000/svg" width="16" height="16">
            <path d="M985.6 38.4c-51.2-51.2-140.8-51.2-192 0-32 32-44.8 83.2-38.4 121.6l-268.8 192c-12.8 0-32-6.4-44.8-6.4-128 0-236.8 108.8-236.8 236.8s108.8 236.8 236.8 236.8 236.8-108.8 236.8-236.8c0-19.2 0-38.4-6.4-51.2l192-268.8c44.8 6.4 89.6 0 121.6-38.4 51.2-44.8 51.2-134.4 0-185.6zM563.2 710.4c-70.4 70.4-179.2 70.4-243.2 0S249.6 531.2 320 467.2s179.2-70.4 243.2 0c64 64 64 172.8 0 243.2z"
                  fill="#ffffff"></path>
            <path d="M723.2 844.8c-6.4 0-12.8 6.4-19.2 6.4-70.4 64-160 108.8-262.4 108.8C230.4 960 64 793.6 64 582.4c0-102.4 38.4-192 108.8-262.4l32 32c6.4 6.4 19.2 6.4 25.6 0l6.4-6.4 38.4-147.2c0-6.4 0-12.8-6.4-19.2h-19.2l-147.2 38.4s-6.4 0-6.4 6.4c-6.4 6.4-6.4 19.2 0 25.6l32 25.6c-76.8 83.2-128 192-128 307.2 0 121.6 51.2 230.4 128 313.6 76.8 76.8 192 128 313.6 128 121.6 0 230.4-51.2 307.2-128 6.4-6.4 6.4-12.8 6.4-19.2 0-19.2-12.8-32-32-32z"
                  fill="#ffffff" ></path>
            <path d="M441.6 480c-57.6 0-108.8 51.2-108.8 108.8s44.8 102.4 102.4 102.4 102.4-44.8 102.4-102.4-38.4-108.8-96-108.8z"
                  fill="#ffffff"></path>
        </svg>
    </g>
</svg>