<svg width="28" height="28" xmlns="http://www.w3.org/2000/svg">
    <g>
        <rect fill="#10cecf" rx="6" height="28" width="28"/>
        <svg viewBox="0 0 1024 1024" width="16" height="16" x="6" y="6">
            <path d="M891.273846 436.775385H132.726154C61.44 436.775385 3.938462 495.064615 3.938462 565.563077v248.910769c0 71.286154 58.289231 128.787692 128.787692 128.787692h758.547692c71.286154 0 128.787692-58.289231 128.787692-128.787692v-248.910769c0-71.286154-57.501538-128.787692-128.787692-128.787692zM293.415385 586.830769c25.206154 0 46.473846 21.267692 46.473846 46.473846 0 25.6-21.267692 46.473846-46.473846 46.473847-25.6 0-46.473846-21.267692-46.473847-46.473847 0-25.6 21.267692-46.473846 46.473847-46.473846z m-146.51077 0c25.6 0 46.473846 21.267692 46.473847 46.473846 0 25.6-21.267692 46.473846-46.473847 46.473847s-46.473846-21.267692-46.473846-46.473847c0-25.6 21.267692-46.473846 46.473846-46.473846z m776.664616 203.224616c0 22.843077-18.510769 41.353846-41.353846 41.353846H141.784615c-22.843077 0-41.353846-18.510769-41.353846-41.353846S118.941538 748.307692 141.784615 748.307692h740.43077c22.843077 0 41.353846 18.510769 41.353846 41.747693z"
                  fill="#ffffff"></path>
            <path d="M511.212308 829.833846c-0.787692 0-0.787692 0-0.787693 0.787692v50.018462c0 0.787692 0 0.787692 0.787693 0.787692s0.787692 0 0.787692-0.787692v-50.018462c0-0.787692 0-0.787692-0.787692-0.787692z m56.713846-554.929231h-43.323077 43.323077z m3.544615 204.012308c-19.298462 0-35.446154-16.147692-35.446154-35.446154V113.427692c0-19.298462 16.147692-35.446154 35.446154-35.446154s35.446154 16.147692 35.446154 35.446154v330.436923c0.787692 19.298462-15.36 35.052308-35.446154 35.052308z m213.858462 0c-19.298462 0-35.446154-16.147692-35.446154-35.446154V113.427692c0-19.298462 16.147692-35.446154 35.446154-35.446154s35.446154 16.147692 35.446154 35.446154v330.436923c0.393846 19.298462-14.966154 35.052308-35.446154 35.052308z"
                  fill="#ffffff"></path>
        </svg>
    </g>
</svg>