<svg width="28" height="28" xmlns="http://www.w3.org/2000/svg">
    <g>
        <rect fill="#FE65A6" rx="6" height="28" width="28"/>
        <svg viewBox="0 0 1024 1024" xmlns="http://www.w3.org/2000/svg" width="18" height="18" x="5" y="5">
            <path d="M512.007487 380.43889a49.594717 49.594717 0 1 0-49.594718-49.594718 49.594717 49.594717 0 0 0 49.594718 49.594718z"
                  fill="#ffffff"></path>
            <path d="M512.007487 0a511.992524 511.992524 0 1 0 511.992524 511.901358A511.901358 511.901358 0 0 0 512.007487 0z m194.002865 766.894785H318.004621a60.443562 60.443562 0 0 1-59.714227-69.833738l41.572042-265.568772a60.352395 60.352395 0 0 1 59.714228-51.053385h70.471905a95.816265 95.816265 0 1 1 164.100168 0h70.563073a60.261228 60.261228 0 0 1 59.623061 51.053385L765.906913 697.061047a60.352395 60.352395 0 0 1-59.896561 69.833738z"
                  fill="#ffffff"></path>
            <path d="M498.69714 504.881517h-32.820034l-61.355229 62.449231v-62.449231h-28.899863v155.621659h28.899863v-60.534728l17.777518-18.233352 48.136049 78.76808 32.820034 1.185168-60.717062-98.915934 56.158724-57.890893zM580.747224 597.415778H620.040097v6.837507a44.854046 44.854046 0 0 1-11.760512 27.897029 33.549368 33.549368 0 0 1-23.976858 9.754843 44.580546 44.580546 0 0 1-16.957017-3.282003 40.204541 40.204541 0 0 1-15.680683-13.49268 58.25556 58.25556 0 0 1-8.660842-19.783187 95.633931 95.633931 0 0 1-2.735003-22.79169 75.212577 75.212577 0 0 1 12.854513-42.483711 44.580546 44.580546 0 0 1 15.680683-13.21918 45.58338 45.58338 0 0 1 15.498349-3.555503 34.187535 34.187535 0 0 1 20.421355 6.199339 42.666044 42.666044 0 0 1 8.296175 9.116676 92.716595 92.716595 0 0 1 7.01984 13.583847l27.350028-6.564006a63.816732 63.816732 0 0 0-23.156357-32.911201 66.278235 66.278235 0 0 0-16.957017-8.205008 77.765246 77.765246 0 0 0-48.95655 0.820501 65.0019 65.0019 0 0 0-25.800193 16.957017 77.491746 77.491746 0 0 0-16.136517 26.803028 110.402946 110.402946 0 0 0 0 68.64857 77.94758 77.94758 0 0 0 16.31885 26.803027 69.742571 69.742571 0 0 0 25.89136 16.136517 83.599919 83.599919 0 0 0 25.162026 4.102504 47.862549 47.862549 0 0 0 24.615025-7.01984 44.033545 44.033545 0 0 0 16.865851-17.321685v20.056687h22.974023v-85.332087h-67.463402z"
                  fill="#ffffff"></path>
        </svg>
    </g>
</svg>