<svg width="28" height="28" xmlns="http://www.w3.org/2000/svg">
    <g>
        <rect fill="#78F" rx="6" height="28" width="28"/>
        <svg viewBox="0 0 1024 1024" xmlns="http://www.w3.org/2000/svg" width="18" height="18" x="5" y="5">
            <path d="M896 512c0-113.045333-0.192-189.226667-7.829333-246.122667-7.317333-54.442667-20.032-78.293333-35.904-94.144-15.872-15.872-39.701333-28.586667-94.144-35.904C701.226667 128.213333 625.066667 128 512 128s-189.226667 0.192-246.122667 7.829333c-54.442667 7.317333-78.293333 20.032-94.144 35.904-15.872 15.872-28.586667 39.701333-35.904 94.144C128.213333 322.773333 128 398.976 128 512c0 113.045333 0.192 189.226667 7.829333 246.122667 7.317333 54.442667 20.032 78.293333 35.904 94.144 15.872 15.872 39.701333 28.586667 94.144 35.904C322.773333 895.786667 398.976 896 512 896v85.333333c-214.336 0-324.864 0-394.026667-62.485333l-6.570666-6.250667C42.666667 843.882667 42.666667 733.248 42.666667 512 42.666667 290.773333 42.666667 180.138667 111.402667 111.402667 180.138667 42.666667 290.752 42.666667 512 42.666667c221.226667 0 331.861333 0 400.597333 68.736C981.333333 180.138667 981.333333 290.752 981.333333 512c0 221.226667 0 331.861333-68.736 400.597333l-6.549333 6.250667C836.864 981.354667 726.336 981.333333 512 981.333333v-85.333333c113.045333 0 189.226667-0.192 246.122667-7.829333 54.442667-7.317333 78.293333-20.032 94.144-35.904 15.872-15.872 28.586667-39.701333 35.904-94.144C895.786667 701.226667 896 625.066667 896 512z"
                  fill="#ffffff"></path>
            <path d="M384.341333 279.573333a42.666667 42.666667 0 0 1 49.344 69.610667l-30.101333 21.333333H734.293333a42.666667 42.666667 0 1 1 0 85.333334H336.938667c-13.312 0-26.666667 0.064-36.949334-0.981334a79.146667 79.146667 0 0 1-19.797333-4.309333 51.178667 51.178667 0 0 1-26.624-21.952 47.701333 47.701333 0 0 1-2.453333-43.434667c4.266667-9.813333 10.944-16.512 14.485333-19.84 7.338667-6.933333 18.048-14.378667 26.944-20.693333l91.797333-65.066667zM639.658667 744.426667a42.666667 42.666667 0 0 1-49.344-69.610667l30.101333-21.333333H289.706667a42.666667 42.666667 0 1 1 0-85.333334h397.376c13.312 0 26.666667-0.064 36.949333 0.981334 5.184 0.512 12.437333 1.536 19.797333 4.309333 7.637333 2.837333 19.029333 8.96 26.624 21.952 8.661333 14.805333 7.893333 30.912 2.453334 43.434667-4.266667 9.813333-10.944 16.512-14.485334 19.84-7.338667 6.933333-18.048 14.378667-26.944 20.693333l-91.797333 65.066667z"
                  fill="#ffffff"></path>
        </svg>
    </g>
</svg>