<svg width="28" height="28" xmlns="http://www.w3.org/2000/svg">
    <g>
        <rect fill="#Fb527F" rx="6" height="28" width="28"/>
        <svg x="5" y="3" viewBox="0 0 1285 1024" xmlns="http://www.w3.org/2000/svg" width="22" height="22">
            <path d="M512 0C229.2 0 0 229.2 0 512s229.2 512 512 512 512-229.2 512-512S794.8 0 512 0zM512 960C264.6 960 64 759.4 64 512S264.6 64 512 64s448 200.6 448 448S759.4 960 512 960z"
                  fill="#ffffff"></path>
            <path d="M262.9 425.4 262.9 529c0 9-0.4 16.6-1.1 22.9-0.8 6.3-2.5 12.7-5.2 19.2-4.5 10.9-11.9 19.4-22.3 25.4-10.3 6.1-22.9 9.1-37.8 9.1-13.4 0-24.6-2.1-33.5-6.3-9-4.2-16.2-11.1-21.7-20.5-2.9-5-5.2-10.8-7-17.4-1.8-6.6-2.7-12.8-2.7-18.8 0-6.3 1.8-11.1 5.3-14.4 3.5-3.3 8-5 13.5-5 5.3 0 9.3 1.5 12 4.6 2.7 3.1 4.8 7.8 6.2 14.3 1.5 6.9 3.1 12.5 4.6 16.6 1.5 4.1 4.1 7.7 7.7 10.7 3.6 3 8.7 4.5 15.4 4.5 17.7 0 26.6-13 26.6-39L222.9 425.4c0-8.1 1.8-14.2 5.3-18.2 3.6-4 8.4-6.1 14.5-6.1 6.2 0 11.1 2 14.8 6.1C261 411.2 262.9 417.3 262.9 425.4z"
                  fill="#ffffff"></path>
            <path d="M196.5 615.6c-14.8 0-27.5-2.5-37.8-7.3-10.8-5.1-19.5-13.3-26-24.5-3.3-5.8-6-12.4-8-19.8-2-7.4-3.1-14.6-3.1-21.4 0-9.1 2.8-16.4 8.4-21.7 5.4-5.1 12.3-7.7 20.4-7.7 10.3 0 16.3 4.3 19.5 8 3.9 4.4 6.6 10.5 8.5 18.7 1.4 6.5 2.8 11.6 4.2 15.3 0.9 2.5 2.4 4.6 4.7 6.4 1.7 1.4 4.8 2.2 9 2.2 5.4 0 16.6 0 16.6-29L212.9 425.4c0-10.6 2.6-18.9 7.8-24.8 5.4-6.2 13.1-9.5 22-9.5 9 0 16.7 3.2 22.2 9.4 5.3 5.9 8 14.3 8 24.9L272.9 529c0 9.3-0.4 17.5-1.2 24.1-0.9 7.2-2.9 14.5-5.9 21.8-5.3 12.9-14.2 23-26.4 30.2C227.5 612.1 213.1 615.6 196.5 615.6zM150.4 533.2c-3.8 0-5.6 1.3-6.6 2.2-1.4 1.3-2.1 3.8-2.1 7.2 0 5 0.8 10.4 2.3 16.1 1.6 5.7 3.6 10.8 6.1 15.1 4.5 7.7 10.1 13.1 17.2 16.4 7.6 3.6 17.4 5.4 29.3 5.4 13 0 24-2.6 32.7-7.7 8.5-5 14.4-11.7 18.1-20.6 2.3-5.6 3.9-11.2 4.5-16.5 0.7-5.9 1.1-13.2 1.1-21.7L253 425.4c0-5.4-1-9.4-2.9-11.5-1.2-1.3-3-2.8-7.3-2.8-4.1 0-5.9 1.4-7 2.7-1.9 2.1-2.8 6.1-2.8 11.6l0 109.4c0 42.6-22.9 49-36.6 49-9 0-16.3-2.3-21.7-6.7-5-4.1-8.6-9.1-10.7-14.9-1.7-4.6-3.3-10.5-5-17.9-1.4-6.2-3.1-8.8-3.9-9.8C154 533.4 151.9 533.2 150.4 533.2z"
                  fill="#ffffff"></path>
            <path d="M456.6 542.9c0 12-3.1 22.7-9.2 32.2-6.2 9.5-15.2 17-27 22.4-11.9 5.4-25.9 8.1-42.2 8.1-19.5 0-35.6-3.7-48.3-11.1-9-5.3-16.3-12.4-21.9-21.2-5.6-8.9-8.4-17.5-8.4-25.8 0-4.9 1.7-9 5.1-12.5 3.4-3.5 7.7-5.2 12.9-5.2 4.2 0 7.8 1.3 10.7 4 2.9 2.7 5.4 6.7 7.5 12 2.5 6.3 5.2 11.6 8.2 15.8 2.9 4.2 7 7.7 12.3 10.5 5.3 2.7 12.3 4.1 20.9 4.1 11.9 0 21.5-2.8 28.9-8.3 7.4-5.5 11.1-12.4 11.1-20.7 0-6.6-2-11.9-6-16-4-4.1-9.2-7.2-15.5-9.4-6.3-2.2-14.8-4.5-25.4-6.9-14.2-3.3-26.1-7.2-35.7-11.7-9.6-4.5-17.2-10.5-22.8-18.2-5.6-7.7-8.4-17.2-8.4-28.7 0-10.9 3-20.5 8.9-29 5.9-8.5 14.5-14.9 25.8-19.5 11.2-4.5 24.5-6.8 39.7-6.8 12.1 0 22.6 1.5 31.5 4.5 8.9 3 16.2 7 22.1 12 5.8 5 10.1 10.2 12.8 15.7 2.7 5.5 4 10.8 4 16.1 0 4.8-1.7 9.1-5.1 12.9-3.4 3.8-7.6 5.7-12.6 5.7-4.6 0-8.1-1.1-10.5-3.4-2.4-2.3-5-6-7.8-11.3-3.6-7.5-7.9-13.3-13-17.5-5-4.2-13.1-6.3-24.3-6.3-10.3 0-18.7 2.3-25 6.8-6.3 4.5-9.5 10-9.5 16.4 0 4 1.1 7.4 3.2 10.3 2.2 2.9 5.1 5.4 8.9 7.4 3.8 2.1 7.6 3.7 11.5 4.9 3.9 1.2 10.3 2.9 19.2 5.1 11.2 2.6 21.2 5.5 30.3 8.6 9 3.1 16.7 7 23.1 11.5 6.3 4.5 11.3 10.2 14.8 17.1C454.8 524.4 456.6 532.9 456.6 542.9z"
                  fill="#ffffff"></path>
            <path d="M378.1 615.6c-21.2 0-39.2-4.2-53.3-12.4-10.4-6.1-18.9-14.4-25.3-24.5-6.6-10.4-10-20.9-10-31.2 0-7.4 2.7-14.2 7.9-19.5 5.2-5.4 12.2-8.2 20-8.2 6.7 0 12.8 2.3 17.5 6.7 4.1 3.8 7.4 8.9 10 15.7 2.2 5.5 4.6 10.1 7.1 13.7 2 2.9 4.8 5.3 8.7 7.3 3.8 2 9.3 3 16.3 3 9.6 0 17.3-2.1 23-6.3 4.9-3.7 7.1-7.6 7.1-12.7 0-5.2-1.8-7.6-3.2-9-2.9-2.9-6.8-5.3-11.6-6.9-6-2-14.2-4.3-24.4-6.6-14.8-3.5-27.5-7.6-37.7-12.3-11.1-5.2-20.1-12.3-26.7-21.4-6.9-9.4-10.4-21-10.4-34.6 0-12.9 3.6-24.6 10.7-34.7 7-10 17.2-17.8 30.2-23 12.4-5 27-7.5 43.4-7.5 13.2 0 24.9 1.7 34.7 5.1 10 3.4 18.5 8.1 25.3 13.9 6.9 5.9 12 12.2 15.3 18.9 3.4 6.8 5.1 13.7 5.1 20.5 0 7.3-2.5 13.8-7.6 19.5-5.3 6-12.2 9.1-20.1 9.1-7.2 0-13.1-2.1-17.4-6.2-3.2-3.1-6.3-7.6-9.6-13.8l-0.2-0.4c-3-6.1-6.4-10.9-10.3-14.1-1.8-1.5-6.5-4-17.9-4-8.2 0-14.6 1.7-19.2 4.9-4.7 3.4-5.3 6.2-5.3 8.3 0 2.3 0.7 3.5 1.2 4.3 1.3 1.7 3.2 3.3 5.7 4.6 3.2 1.7 6.4 3.1 9.6 4.1 3.7 1.1 10 2.8 18.6 5 11.4 2.7 21.9 5.7 31.2 8.9 9.9 3.4 18.5 7.7 25.6 12.8 7.6 5.4 13.7 12.4 17.9 20.6 4.3 8.3 6.4 18.3 6.4 29.9 0 13.9-3.6 26.5-10.8 37.7-7.2 11.1-17.7 19.9-31.3 26.1C411.3 612.6 395.7 615.6 378.1 615.6zM317.3 539.8c-3.2 0-4.7 1.1-5.7 2.2-1.6 1.6-2.2 3.2-2.2 5.5 0 6.4 2.3 13.3 6.9 20.5 4.8 7.6 10.9 13.5 18.6 18 11 6.4 25.6 9.7 43.2 9.7 14.8 0 27.6-2.4 38.1-7.2 10.2-4.6 17.6-10.8 22.8-18.7 5.1-8 7.6-16.7 7.6-26.8 0-8.3-1.4-15.3-4.2-20.7-2.8-5.5-6.7-9.9-11.7-13.5-5.5-3.9-12.5-7.4-20.6-10.2-8.7-3-18.5-5.8-29.3-8.3l-0.2 0c-9.1-2.3-15.6-4-19.6-5.3-4.5-1.4-9-3.3-13.4-5.7-5-2.7-9.1-6.2-12.1-10.2-3.5-4.6-5.2-10.1-5.2-16.2 0-6.7 2.4-16.4 13.7-24.5 8-5.8 18.4-8.7 30.8-8.7 13.7 0 23.7 2.8 30.7 8.6 6.1 5 11.3 12 15.5 20.6 2.9 5.5 4.9 7.7 5.8 8.6 0.2 0.2 1.2 0.6 3.5 0.6 2.2 0 3.6-0.7 5.1-2.3 1.8-2 2.6-3.9 2.6-6.3 0-3.6-1-7.6-3-11.6-2.1-4.2-5.6-8.4-10.3-12.5-4.8-4.1-11.2-7.6-18.8-10.1-7.8-2.6-17.3-4-28.3-4-13.8 0-25.9 2-35.9 6.1-9.5 3.8-16.5 9.1-21.3 16-4.8 6.8-7.1 14.4-7.1 23.3 0 9.3 2.1 16.8 6.5 22.8 4.6 6.4 10.8 11.3 18.9 15 8.9 4.1 20.3 7.8 33.7 11 10.8 2.5 19.7 4.9 26.4 7.1 7.8 2.7 14.3 6.6 19.4 11.8 5.9 6 8.9 13.7 8.9 23 0 11.4-5.2 21.3-15.2 28.7-9.2 6.8-20.9 10.3-34.9 10.3-10.4 0-18.7-1.7-25.5-5.2-6.7-3.5-12.1-8.1-16-13.6-3.3-4.8-6.4-10.8-9.2-17.8-1.9-4.9-3.8-7.2-5-8.4C320.5 540.5 319.5 539.8 317.3 539.8z"
                  fill="#ffffff"></path>
            <path d="M577.6 401.1c20.5 0 38.1 4.2 52.8 12.5 14.7 8.3 25.8 20.1 33.4 35.5 7.6 15.3 11.3 33.3 11.3 54 0 15.3-2.1 29.2-6.2 41.7-4.1 12.5-10.3 23.3-18.6 32.5-8.3 9.2-18.4 16.2-30.5 21-12.1 4.9-25.9 7.3-41.4 7.3-15.5 0-29.3-2.5-41.5-7.5-12.2-5-22.4-12-30.6-21.1-8.2-9.1-14.4-20-18.5-32.8-4.2-12.8-6.3-26.6-6.3-41.4 0-15.2 2.2-29.1 6.5-41.8 4.4-12.7 10.7-23.5 19-32.4 8.3-8.9 18.3-15.7 30.2-20.4C549 403.4 562.5 401.1 577.6 401.1zM634.5 502.8c0-14.5-2.3-27-7-37.6-4.7-10.6-11.4-18.6-20-24.1-8.7-5.4-18.6-8.2-29.9-8.2-8 0-15.4 1.5-22.2 4.5-6.8 3-12.6 7.4-17.5 13.2-4.9 5.8-8.8 13.1-11.6 22.1-2.8 8.9-4.2 19-4.2 30.1 0 11.2 1.4 21.4 4.2 30.5 2.8 9.1 6.8 16.6 12 22.6 5.2 6 11.1 10.5 17.8 13.4 6.7 3 14 4.5 22.1 4.5 10.3 0 19.7-2.6 28.3-7.7 8.6-5.1 15.4-13 20.5-23.7C631.9 531.6 634.5 518.4 634.5 502.8z"
                  fill="#ffffff"></path>
            <path d="M578.4 615.6c-16.7 0-31.9-2.8-45.3-8.2-13.6-5.5-25.1-13.5-34.3-23.7-9.1-10.1-16-22.3-20.6-36.4-4.5-13.7-6.8-28.7-6.8-44.5 0-16.2 2.4-31.4 7.1-45.1 4.8-14 11.9-26 21.1-35.9 9.3-10 20.6-17.7 33.8-22.9 13-5.2 27.9-7.8 44.2-7.8 22.2 0 41.6 4.6 57.7 13.8 16.4 9.3 29 22.7 37.4 39.8 8.2 16.7 12.4 36.3 12.4 58.4 0 16.3-2.3 31.4-6.7 44.8-4.6 13.8-11.5 25.9-20.7 36.1-9.3 10.3-20.8 18.2-34.2 23.6C610.3 612.9 595.1 615.6 578.4 615.6zM577.6 411.1c-13.8 0-26.1 2.1-36.8 6.4-10.4 4.1-19.4 10.2-26.6 18-7.3 7.8-12.9 17.5-16.8 28.8-4 11.6-6 24.5-6 38.6 0 13.7 1.9 26.6 5.8 38.3 3.7 11.4 9.3 21.2 16.5 29.2 7.1 7.9 16.2 14.2 27 18.5 11 4.5 23.7 6.7 37.8 6.7 14.2 0 26.9-2.2 37.7-6.6 10.6-4.3 19.6-10.5 26.8-18.5 7.3-8.1 12.9-17.8 16.5-29 3.8-11.4 5.7-24.4 5.7-38.5 0-19-3.5-35.7-10.3-49.6-6.7-13.6-16.3-23.8-29.3-31.2C612.3 414.8 596.2 411.1 577.6 411.1zM578.1 583.7c-9.4 0-18.2-1.8-26.1-5.3-8-3.6-15.2-8.9-21.3-16-6-7-10.8-15.8-14-26.2-3.1-10-4.7-21.3-4.7-33.5 0-12.1 1.6-23.3 4.7-33.2 3.2-10.2 7.8-18.8 13.5-25.5 5.9-6.9 13-12.2 21.1-15.8 8-3.6 16.9-5.4 26.2-5.4 13.1 0 24.9 3.3 35.2 9.7 10.4 6.5 18.4 16.1 23.9 28.5 5.2 11.8 7.9 25.9 7.9 41.7 0 17.1-2.9 31.8-8.6 43.8-5.9 12.5-14.1 21.9-24.4 28C601.4 580.7 590.1 583.7 578.1 583.7zM577.6 442.9c-6.6 0-12.7 1.2-18.1 3.7-5.5 2.4-10 5.9-14 10.5-4 4.7-7.3 11-9.7 18.6-2.5 7.9-3.8 17.1-3.8 27.1 0 10.2 1.3 19.4 3.8 27.5 2.4 7.7 5.8 14.1 10 19 4.2 4.9 8.9 8.4 14.3 10.8 5.4 2.4 11.4 3.6 18 3.6 8.5 0 16.1-2.1 23.1-6.3 6.9-4.1 12.3-10.5 16.6-19.4 4.4-9.3 6.7-21.2 6.7-35.2 0-13-2.1-24.3-6.2-33.6-3.9-8.8-9.2-15.2-16.2-19.6C595 445.1 587 442.9 577.6 442.9z"
                  fill="#ffffff"></path>
            <path d="M761.6 425.1l77 116.5L838.6 424c0-7.6 1.6-13.4 4.9-17.2 3.3-3.8 7.7-5.7 13.3-5.7 5.8 0 10.3 1.9 13.6 5.7 3.3 3.8 5 9.6 5 17.2l0 155.5c0 17.4-7.2 26-21.6 26-3.6 0-6.8-0.5-9.7-1.6-2.9-1-5.6-2.7-8.1-4.9-2.5-2.2-4.9-4.9-7-7.9-2.2-3-4.3-6.1-6.5-9.2l-75.1-115.2 0 115.9c0 7.6-1.8 13.3-5.3 17.1-3.5 3.9-8 5.8-13.5 5.8-5.7 0-10.2-2-13.6-5.9-3.4-3.9-5.1-9.6-5.1-17.1L709.9 430.1c0-6.5 0.7-11.6 2.2-15.2 1.7-4 4.5-7.4 8.5-9.9 4-2.6 8.2-3.8 12.8-3.8 3.6 0 6.7 0.6 9.2 1.8 2.6 1.2 4.8 2.7 6.7 4.7 1.9 2 3.9 4.5 5.9 7.7C757.3 418.4 759.4 421.7 761.6 425.1z"
                  fill="#ffffff"></path>
            <path d="M853.8 615.6c-4.7 0-9.1-0.7-13.1-2.1-4.1-1.5-7.9-3.8-11.4-6.9-3.1-2.7-5.9-5.9-8.5-9.5-2.2-3.1-4.4-6.3-6.6-9.4l-0.1-0.2-56.8-87 0 82.2c0 10.1-2.6 18.1-7.9 23.8-5.4 5.9-12.6 9.1-20.9 9.1-8.5 0-15.8-3.2-21.2-9.3-5-5.8-7.6-13.7-7.6-23.6L699.7 430.1c0-7.8 0.9-14 2.8-18.9l0.1-0.3c2.5-5.9 6.6-10.8 12.3-14.4 5.6-3.6 11.7-5.5 18.2-5.5 5 0 9.5 0.9 13.4 2.7 3.7 1.7 7 4 9.7 6.8 2.4 2.5 4.8 5.6 7.2 9.3 2 3.1 4.1 6.4 6.3 9.8l58.6 88.7L828.3 424c0-10.1 2.5-18 7.3-23.7 5.2-6 12.4-9.2 20.9-9.2 8.6 0 15.9 3.2 21.2 9.2 4.9 5.7 7.4 13.7 7.4 23.8l0 155.5C885.4 612.1 863.3 615.6 853.8 615.6zM830.8 576.4c2.1 3 4.2 6 6.3 9 1.7 2.4 3.6 4.5 5.5 6.3 1.6 1.4 3.1 2.4 4.8 3 1.8 0.6 3.9 1 6.3 1 4.9 0 11.6 0 11.6-16L865.3 424c0-5-0.9-8.8-2.5-10.6-1-1.1-2.5-2.3-6.1-2.3-3.3 0-4.7 1.1-5.7 2.2-1.6 1.9-2.5 5.7-2.5 10.7l0 150.9-95.5-144.5c-2.1-3.4-4.2-6.7-6.2-9.8-1.6-2.6-3.2-4.6-4.7-6.1-1.1-1.1-2.3-1.9-3.7-2.6-1.2-0.6-3-0.9-5.1-0.9-2.6 0-5.1 0.7-7.4 2.2-2.2 1.5-3.7 3.1-4.7 5.3-0.7 1.8-1.4 5.2-1.4 11.5l0 152.6c0 3.4 0.5 8 2.7 10.5 1.1 1.2 2.6 2.4 6.1 2.4 2.7 0 4.5-0.8 6.1-2.5 2.2-2.4 2.7-7 2.7-10.4L737.4 433.1 830.8 576.4z"
                  fill="#ffffff"></path>
        </svg>
    </g>
</svg>
