<svg width="28" height="28" xmlns="http://www.w3.org/2000/svg">
    <g>
        <rect fill="#FE5586" rx="6" height="28" width="28"/>
        <svg x="5" y="5" viewBox="0 0 1024 1024" xmlns="http://www.w3.org/2000/svg" width="18" height="18">
            <path d="M514.5829 12.824191c-274.577014 0-496.577427 222.000413-496.577427 496.577427s205.001265 498.166904 479.046733 498.166904 514.102961-223.58989 514.102961-498.166904S789.159914 12.824191 514.5829 12.824191z m406.286869 523.660466h-121.089257l-72.228318 107.810931c-7.436482 11.683689-20.714809 16.993988-34.519522 15.930896-13.809873-1.594638-24.962016-11.152143-29.209222-24.43047l-68.512658-279.887313-111.000206 396.729364c-2.126184 13.809873-15.930896 25.493562-31.866952 27.088199h-2.65773c-15.39935 0-29.209223-10.089051-34.519521-24.962016L324.980985 436.105047l-55.765876 83.380461c-6.904936 10.089051-18.05708 16.462442-30.272314 16.462442H108.290871c-14.872965 0-27.0882-12.215235-27.0882-27.088199 0-14.872965 12.215235-27.0882 27.0882-27.0882h121.089258l72.228318-107.810931c7.436482-11.152143 21.246355-17.525534 34.519521-15.930896a36.253496 36.253496 0 0 1 29.209222 24.962016l83.380462 294.760277 112.594844-401.508116c2.126184-13.809873 15.39935-25.493562 31.866952-27.0882 16.993988-1.594638 31.866952 9.03112 37.177251 24.43047l74.886048 306.443966 54.702784-81.790984c6.904936-10.089051 18.05708-16.462442 30.272315-16.462441h130.651923c14.872965 0 27.0882 12.215235 27.0882 27.088199 0 14.872965-12.215235 27.619745-27.0882 27.619746z" fill="#fff"></path>
        </svg>
    </g>
</svg>