<svg width="28" height="28" xmlns="http://www.w3.org/2000/svg">
    <g>
        <rect fill="#448BFF" rx="6" height="28" width="28"/>
        <svg x="5" y="5" viewBox="0 0 1024 1024" xmlns="http://www.w3.org/2000/svg" width="18" height="18">
            <path d="M766.208 958.3616H269.7216a203.9808 203.9808 0 0 1-204.0832-204.0832V257.8432c0-112.64 91.2896-204.032 204.0832-204.032h496.4864c112.64 0 204.032 91.392 204.032 204.032v496.4864a203.9808 203.9808 0 0 1-204.032 204.0832z m-60.8256-215.3472a378.5728 378.5728 0 0 0-6.2464-30.9248c-1.1264-4.7616-2.7136-9.216-4.096-13.824-1.792-6.0416-3.4304-12.0832-5.632-17.8176a315.2384 315.2384 0 0 0-6.144-15.2064c-2.048-4.7616-3.9936-9.6256-6.144-14.2336-2.4064-5.12-5.12-10.0864-7.7824-15.0016a352.256 352.256 0 0 0-6.8096-11.776c-2.9184-4.864-6.144-9.4208-9.3184-14.0288a258.304 258.304 0 0 0-18.176-22.6816l-8.0896-8.192a192.3584 192.3584 0 0 0-11.8784-11.008c-2.9696-2.4064-6.0416-4.5056-8.96-6.656-4.2496-3.072-8.3456-6.2976-12.6976-8.8576-0.256-0.1024-0.512-0.3584-0.768-0.512a43.4688 43.4688 0 0 1-21.3504-37.4784v-17.5104c0-15.5136 8.192-29.5936 21.3504-37.5296 0.256-0.1536 0.512-0.4096 0.768-0.512 4.352-2.7136 8.448-5.7856 12.6976-8.8576 3.072-2.1504 5.9904-4.1984 8.96-6.656 4.096-3.4304 7.936-7.168 11.8784-10.9568 2.7136-2.7136 5.4784-5.376 8.192-8.192a255.232 255.232 0 0 0 27.5456-36.608 215.552 215.552 0 0 0 6.7584-11.776 237.3632 237.3632 0 0 0 13.9776-29.184c2.048-5.0176 4.1984-10.0352 6.144-15.2576 2.048-5.7856 3.84-11.776 5.632-17.8176 1.3824-4.608 2.9184-9.0624 4.096-13.824 2.56-10.0864 4.608-20.48 6.2464-30.9248 0.1536-0.9216 0.4096-1.6896 0.512-2.56a44.1856 44.1856 0 0 0-43.52-51.0976H373.4016c-27.136 0-47.616 24.32-43.52 51.0464 0.1024 0.9216 0.3584 1.6896 0.512 2.56 1.6384 10.6496 3.7888 20.992 6.2464 31.1296 1.1264 4.7104 2.7136 9.216 4.096 13.824 1.792 6.0416 3.4304 12.032 5.632 17.8176 1.9456 5.2224 3.9936 10.0864 6.144 15.2064 2.048 4.7104 3.9936 9.6256 6.144 14.1824a352.256 352.256 0 0 0 14.592 26.7264c2.9696 4.9152 6.144 9.5232 9.3696 14.1312a207.5648 207.5648 0 0 0 18.176 22.528c2.6624 2.816 5.3248 5.4784 8.192 8.192 3.7888 3.84 7.7824 7.5264 11.8784 11.008 2.9184 2.4064 5.9904 4.5056 8.96 6.656 4.1984 3.072 8.2944 6.2464 12.6976 8.8064l0.7168 0.512c13.312 7.936 21.4016 22.016 21.4016 37.5296v17.5104c0 15.5136-8.192 29.5936-21.3504 37.5296-0.256 0.1536-0.512 0.4096-0.768 0.512-4.4032 2.6624-8.4992 5.7344-12.6976 8.8064-2.9184 2.2016-5.9904 4.2496-8.96 6.656-4.096 3.4816-7.936 7.168-11.9296 11.0592-2.6624 2.6624-5.4784 5.2224-8.0384 8.192-3.6864 4.096-7.3216 8.2944-10.752 12.8-2.56 3.1744-5.0176 6.5024-7.424 9.8304-3.2256 4.608-6.4 9.216-9.3184 14.08a352.256 352.256 0 0 0-14.592 26.7264c-2.2016 4.608-4.2496 9.3696-6.144 14.2336-2.048 5.0176-4.2496 9.984-6.144 15.2576-2.048 5.7344-3.84 11.776-5.632 17.7664-1.4336 4.608-2.9696 9.1136-4.096 13.824-2.56 10.0864-4.608 20.48-6.2976 31.0784-0.1536 0.9216-0.4096 1.6896-0.512 2.56-4.096 26.7776 16.384 51.0976 43.52 51.0976h289.024c27.136 0 47.616-24.32 43.52-51.0464-0.256-1.024-0.512-1.9456-0.6144-2.8672z"
                  fill="#fff"></path>
            <path d="M415.8976 755.712h204.1344c7.68 0 11.264-9.728 5.2736-14.592l-93.952-73.216a8.0384 8.0384 0 0 1-2.9696-6.4V425.8816c0-2.304 1.024-4.5056 2.7136-6.0416l55.9104-45.9264a8.2432 8.2432 0 0 0-5.632-14.336h-126.976a8.2432 8.2432 0 0 0-5.632 14.336l55.296 45.6704c1.6384 1.536 2.7136 3.6864 2.7136 5.9904v235.6736a8.8576 8.8576 0 0 1-2.9696 6.4l-93.2864 73.472a8.2432 8.2432 0 0 0 5.3248 14.592z"
                  fill="#fff"></path>
        </svg>
    </g>
</svg>