<svg width="28" height="28" xmlns="http://www.w3.org/2000/svg">
    <g>
        <rect fill="#5681f5" rx="6" height="28" width="28"/>
        <svg x="5" y="5" viewBox="0 0 1285 1024" xmlns="http://www.w3.org/2000/svg" width="18" height="18">
            <path d="M266.987003 0C193.642402 0 139.370811 64.195984 141.801069 133.814858c2.332345 66.884834-0.697946 153.510497-22.504997 224.153696C97.411191 428.810089 60.425066 473.702087 0 479.463909v65.054608c60.425066 5.774375 97.411191 50.643777 119.293561 121.495355 21.809562 70.643198 24.837343 157.268862 22.504998 224.153696-2.430259 69.608832 51.841332 133.814858 125.198487 133.814858h751.539893c73.344602 0 127.60615-64.195984 125.175892-133.814858-2.332345-66.884834 0.697946-153.510497 22.504998-224.153696 21.88488-70.851578 58.780624-115.738555 119.2082-121.495355v-65.054608c-60.425066-5.774375-97.32081-50.643777-119.2082-121.495355-21.809562-70.633156-24.837343-157.268862-22.504998-224.153696 2.430259-69.608832-51.83129-133.814858-125.175892-133.814858H266.976961z m604.489165 630.328236c0 95.862152-71.504333 154.000064-190.167735 154.000064h-201.997671a21.786967 21.786967 0 0 1-21.786966-21.786967V261.443603a21.786967 21.786967 0 0 1 21.786966-21.786966h200.847818c98.945166 0 163.881776 53.59624 163.881776 135.88359 0 57.7563-43.6844 109.46206-99.33682 118.520297v3.012717c75.759797 8.310078 126.772632 60.781571 126.772632 133.254995z m-212.193208-321.607567h-115.176181v162.686732h97.006985c74.991554 0 116.341098-30.197469 116.341098-84.17281-0.007532-50.583523-35.557595-78.513922-98.171902-78.513922z m-115.176181 227.23671v179.284293h119.41407c78.079589 0 119.436665-31.329749 119.436665-90.208286s-42.516972-89.086049-124.457861-89.08605h-114.392874z"
                  fill="#ffffff"></path>
        </svg>
    </g>
</svg>
