<svg width="28" height="28" xmlns="http://www.w3.org/2000/svg">
    <g>
        <rect fill="#00bb99" rx="6" height="28" width="28"/>
        <svg x="5" y="5" viewBox="0 0 1024 1024" width="18" height="18">
            <path d="M1019.40115 592.02061c-0.031978-2.516694-0.541433-4.873895-1.465406-7.103784-0.031978-0.031778-0.031978-0.127514-0.063757-0.223049-0.860217-1.943282-2.038818-3.631538-3.504024-5.128723-0.19127-0.286806-0.382141-0.573411-0.637168-0.79646-1.497185-1.433428-3.18544-2.548472-5.033187-3.408489-0.350362-0.159292-0.637168-0.382341-1.051287-0.541633-2.229888-0.955552-4.746382-1.433428-7.358411-1.40165l-155.612894 15.194898c-10.448516 0.127314-18.826436 8.632747-18.7309 19.017506 0.095735 10.416538 8.664725 18.7309 19.14502 18.635365l72.215838-0.637168c-0.127514 0.127514-0.254827 0.286806-0.382341 0.414119 1.624499-0.223049 3.026348-0.382341 4.58709-0.573411-52.147044 54.791052-119.934884 103.242801-199.636846 138.984369-237.321496 106.587734-489.933625 60.588721-564.220059-102.66939-74.318412-163.258111 57.817-382.039777 295.138496-488.595732 4.682825-2.102375 9.397229-3.727073 14.048275-5.733912-2.166131 0.414119-4.364241 0.668946-6.625908 0.668946 19.559139 0 35.359426-15.736531 35.359426-35.136378 0-19.368068-15.800088-35.136378-35.359426-35.136378-5.224258 0-10.098153 1.210579-14.589708 3.217419-23.668553 7.995579-47.305127 17.169959-70.814188 27.71401C90.597879 256.425543-65.429135 523.372553 26.313863 725.048017c91.742998 201.707442 396.565928 261.690774 680.873967 134.046916 108.212232-48.579263 197.789299-117.41839 262.232406-195.081535 0.031978 0 0.031978-0.031778 0.031978-0.031778 0.095535 20.92881-0.095535 70.97348-0.127314 84.097782 0.668946 9.875105 8.792039 17.647835 18.858214 17.520521 10.512273-0.095535 18.858214-8.600969 18.762679-19.017506l10.894414-137.296113 0.573411-0.79646-0.509654 0.031778L1019.40115 592.02061zM417.400706 290.319563c-15.226876 10.448516-27.71401 23.477282-36.824633 38.735937-9.492764 15.768309-14.207367 33.798485-14.175589 52.656699 0 20.323621 4.300484 38.927207 13.920762 54.568003 8.951331 14.653465 21.438665 26.91775 36.633562 36.410514 14.685243 9.237937 31.600375 16.501012 50.522346 21.980097 13.506642 3.950122 27.777767 7.358611 42.431232 10.512273l0 132.868315c-6.753421-1.306114-17.042645-3.089905-22.967628-5.415328-11.722852-4.650847-21.5342-10.480294-29.625314-17.488543-8.059336-7.008049-13.95254-14.717222-18.093932-23.445504-4.077435-8.696504-6.116253-17.838905-6.148032-28.191886 0-4.873895-2.006839-9.684034-5.479085-13.124302-3.472246-3.472246-8.282385-5.447307-13.219837-5.447307l-46.891008 0c-5.288015 0-10.352981 2.229888-13.888983 6.148032-3.536003 3.854387-5.256036 9.110623-4.682625 14.366659 0.477876 4.555311 0.955552 9.046866 1.433428 13.634156 0.541633 5.160501 1.369871 10.448516 2.38918 15.800088l0.318584 1.306114c9.524742 35.709789 30.676601 64.475086 61.448738 82.664354 25.770927 15.35419 60.748013 24.11445 96.139218 27.682231l0 16.564769c0 4.873696 1.975061 9.715813 5.479085 13.15628 3.504024 3.440267 8.314163 5.447307 13.251815 5.447307l33.161317 0c4.905674 0 9.779569-1.975061 13.219837-5.447307 3.472246-3.440267 5.479085-8.282385 5.479085-13.15628l0-16.373699c14.14381-1.306114 28.319399-3.376711 42.335696-7.103584 20.323621-5.319793 38.831472-13.028766 55.205171-23.222455 16.628326-10.257445 30.549088-23.158698 41.188874-38.385575 11.308733-16.086893 17.13818-35.168156 17.074424-55.205171-0.031778-23.636574-4.077435-44.469849-13.411107-61.894635-8.887574-16.532791-21.757049-30.326239-37.652871-40.583484-15.449925-9.97064-33.575436-17.647835-54.281397-23.349969-15.417947-4.236727-32.524149-8.186849-50.490567-11.945701l0-115.82567c4.236727 0.700725 8.37792 1.497185 12.264285 2.675786 9.620277 2.898835 17.5523 6.753221 24.050694 11.467825l-0.031778-0.031778c6.530372 4.714603 11.37229 10.002618 15.163119 16.277964 3.312954 5.702134 4.905674 11.531582 4.937652 18.699122 0 4.905674 1.975061 9.684034 5.479085 13.15628 3.504024 3.472246 8.314163 5.447307 13.219837 5.447307l46.891008 0c5.160501 0 10.098153-2.134353 13.665934-5.861426 3.440267-3.727073 5.351771-8.760261 5.033187-13.888783-1.115044-18.34856-5.956961-35.550497-14.717222-50.713616-8.632747-14.940071-20.578448-27.650453-35.199934-37.621093-14.525951-9.906883-31.281791-17.169959-49.853399-21.948319-12.933231-3.344732-26.694701-5.064966-40.838511-6.052496l0-17.169959c0-4.905674-1.975061-9.684034-5.479085-13.15628-3.440267-3.440267-8.314163-5.415328-13.220037-5.415328l-33.161317 0c-4.937652 0-9.747791 1.975061-13.251815 5.415328-3.472246 3.472246-5.479085 8.250606-5.479085 13.15628l0 16.915132c-14.366659 0.923774-28.446713 2.707764-41.794064 6.339302C449.765563 272.162074 432.500069 279.902826 417.400706 290.319563zM581.232229 518.434901c6.816978 1.40165 13.283594 2.930813 19.495382 4.555311 11.786409 3.026148 21.661513 7.071805 29.752828 11.881944 7.485925 4.491555 12.901453 9.843326 17.13818 16.564769l-0.031778-0.031778c3.536003 5.702134 5.861426 13.697713 5.893204 25.197516-0.031778 9.206158-2.038618 16.75584-6.18001 24.050694-4.427798 7.613438-10.384759 14.14381-18.444095 19.94148-8.346141 5.956961-18.157489 10.798878-29.816584 14.462195-5.702134 1.78399-11.595338 3.121883-17.807127 4.013679L581.232229 518.434901zM495.955846 331.954335c4.491555-1.306114 9.142401-2.229888 13.95254-2.930613l0 102.223492c-4.714603-1.242358-9.460985-2.484715-13.920762-3.79083-10.448516-2.99437-19.176798-6.816978-26.407895-11.276754l0 0c-6.593929-4.077435-11.244976-8.760061-14.717222-14.494173-2.866856-4.746382-4.905674-11.627117-4.905674-21.661513 0.031778-7.645217 1.720234-13.825226 5.096744-19.718431 3.631538-6.275545 8.600969-11.659095 15.513482-16.532791C477.575308 338.803291 485.953228 334.85317 495.955846 331.954335z"
                  fill="#ffffff"></path>
        </svg>
    </g>
</svg>