<svg width="28" height="28" xmlns="http://www.w3.org/2000/svg">
    <g>
        <rect fill="#20203b" rx="6" height="28" width="28"/>
        <svg x="6" y="6" viewBox="0 0 1024 1024" xmlns="http://www.w3.org/2000/svg" width="16" height="16">
            <path d="M0 906.298851V117.189405C0 52.197901 52.197901 0 117.189405 0h789.62119C971.290355 0 1023.488256 52.197901 1023.488256 117.189405v789.62119c0 64.47976-52.197901 117.189405-117.189405 117.189405H117.189405C52.197901 1023.488256 0 971.290355 0 906.298851z m877.129435 29.681159c32.23988 0 58.338831-26.098951 58.338831-58.338831V146.358821c0-32.23988-26.098951-58.338831-58.338831-58.338831H146.358821c-32.23988 0-58.338831 26.098951-58.338831 58.338831v731.282358c0 32.23988 26.098951 58.338831 58.338831 58.338831h730.770614z m-222.608695-307.046477l73.17941-73.17941H296.29985l71.132434 71.132434c16.887556 16.887556 16.887556 45.033483 0 61.921039-16.887556 16.887556-45.033483 16.887556-61.92104 0L169.387306 552.683658c-4.605697-2.046977-8.69965-4.605697-12.281859-8.187906-9.211394-9.211394-12.793603-20.981509-12.281859-33.263368-0.511744-11.770115 3.582209-24.051974 12.281859-33.263369 3.582209-3.582209 7.676162-6.14093 12.281859-8.187906l136.123938-136.123938c16.887556-16.887556 45.033483-16.887556 61.92104 0 16.887556 16.887556 16.887556 45.033483 0 61.92104L296.29985 467.734133h431.4003l-73.17941-73.17941c-17.3993-16.887556-16.887556-45.033483 0-61.92104 16.887556-16.887556 45.033483-16.887556 61.921039 0l148.405797 148.405797c16.887556 16.887556 17.3993 45.033483 0 61.92104l-148.405797 148.405797c-16.887556 16.887556-45.033483 16.887556-61.921039 0-17.3993-17.3993-17.3993-45.033483 0-62.432784z"
                  fill="#87Fbf9"></path>
        </svg>
    </g>
</svg>