<svg width="28" height="28" xmlns="http://www.w3.org/2000/svg">
    <g>
        <rect fill="#2975ff" rx="6" height="28" width="28"/>
        <svg viewBox="0 0 1024 1024" width="28" height="28" x="0" y="0">
            <path d="M758.02624 547.1744h-120.6272c-11.71456 0-21.21728-10.12736-21.25824-22.6304 0-12.51328 9.59488-22.6816 21.18656-22.6816h120.61696c8.59136 0 16.3328 5.51936 19.6608 13.9776a23.9616 23.9616 0 0 1-4.44416 24.7808c-4.00384 4.3008-9.472 6.656-15.13472 6.5536z m-0.2048 81.5616H636.23168c-11.28448-0.72704-20.09088-10.6496-20.09088-22.66112 0-12.00128 8.8064-21.92384 20.09088-22.65088h121.50784c8.66304-0.04096 16.4864 5.45792 19.84512 13.9264a23.76704 23.76704 0 0 1-4.5056 24.79104 20.3776 20.3776 0 0 1-15.2576 6.5536v0.04096z m0.21504 72.4992h-120.6272c-11.71456 0-21.22752-10.1376-21.26848-22.66112 0-12.43136 9.59488-22.65088 21.18656-22.65088h120.6272c11.70432 0 21.2992 10.21952 21.2992 22.65088a23.27552 23.27552 0 0 1-6.144 16.09728c-3.9936 4.27008-9.43104 6.62528-15.07328 6.5536z"
                  fill="#FFFFFF"></path>
            <path d="M671.63136 239.88224l-1.18784-0.01024h-401.7152a60.4672 60.4672 0 0 0-51.70176 31.31392l-0.4096 0.82944c-11.776 21.56544-11.78624 49.28512 8.72448 70.4512l2.29376 2.36544 149.4528 119.18336v212.15232l0.06144 2.51904c0.78848 20.1216 11.008 39.59808 30.23872 50.51392l66.46784 36.28032a62.13632 62.13632 0 0 0 56.80128 0l1.69984-0.8704 1.6384-1.00352 2.17088-1.39264a61.31712 61.31712 0 0 0 27.136-51.5584l-0.01024-245.71904 152.33024-122.368 3.9936-5.46816a61.1328 61.1328 0 0 0-47.98464-97.21856z m-1.18784 51.18976a9.97376 9.97376 0 0 1 8.57088 14.6432l-0.73728 1.16736L530.1248 425.90208a48.10752 48.10752 0 0 0-17.9712 35.34848l-0.06144 2.60096v247.3472a10.11712 10.11712 0 0 1-4.84352 8.74496c-2.74432 1.41312-5.9392 1.5872-8.8064 0.53248l-1.19808-0.53248-64.1536-35.03104c-2.90816-1.4848-4.44416-4.43392-4.75136-7.55712l-0.0512-1.18784v-213.6064c0-13.93664-6.05184-27.0336-16.4352-36.21888l-1.9968-1.67936-147.74272-117.8112c-2.92864-3.0208-2.3552-7.04512-0.57344-10.30144a9.25696 9.25696 0 0 1 7.424-5.4272l1.2288-0.0512h400.24064z"
                  fill="#FFFFFF"></path>
        </svg>
    </g>
</svg>