<svg width="28" height="28" xmlns="http://www.w3.org/2000/svg">
    <g>
        <rect fill="#fe65a6" rx="6" height="28" width="28"/>
        <svg viewBox="0 0 1024 1024" width="18" height="18" x="5" y="5">
                <path d="M512 512m-512 0a512 512 0 1 0 1024 0 512 512 0 1 0-1024 0Z" fill="#ffffff"></path>
                <path d="M750.032593 536.177778q-30.198519-33.185185-87.04-41.481482v-0.805926c33.185185-5.357037 59.259259-18.962963 76.989629-40.722963a119.22963 119.22963 0 0 0 27.591111-76.989629c0-46.743704-15.075556-78.506667-46.222222-103.490371s-77.937778-33.185185-141.321481-33.185185H340.574815v222.814815h-137.481482v85.333333H578.37037c29.534815 0 51.721481 2.085926 66.370371 13.890371s22.139259 27.06963 22.139259 49.635555-7.395556 41.813333-22.139259 53.902223-36.93037 20.053333-66.370371 20.053333H449.659259v-66.370371h-109.037037v151.703704H587.851852c62.862222 0 110.933333-16.402963 144.260741-41.908148s48.971852-63.194074 48.971851-109.416296a121.884444 121.884444 0 0 0-31.051851-82.962963z m-185.362963-74.050371H449.659259v-137.481481h115.010371c59.117037 0 88.651852 23.087407 88.651851 68.740741s-29.534815 68.740741-88.651851 68.74074z"
                      fill="#fe65a6"></path>
        </svg>
    </g>
</svg>