<svg width="28" height="28" xmlns="http://www.w3.org/2000/svg">
    <g>
        <rect fill="#3e7bda" rx="6" height="28" width="28"/>
        <svg x="4" y="4" viewBox="0 0 1024 1024" xmlns="http://www.w3.org/2000/svg" width="20" height="20">
            <path d="M88.41 470.78c22.83-0.09 39.15-1.13 62.41-3.04l15.18-1.22-0.18-15.27c-0.6-59.03 33.94-129.36 92.45-188.39 60.15-60.68 132.46-96.89 193.65-96.89h16.85l-0.31-16.68c-0.44-21.71-0.09-28.56 0.35-40.63l1.22-36.75-16.91 0.09c-85.67 0.35-183.85 48.51-262.49 128.93C113.85 279.44 70.62 371.9 72 454.63l0.26 16.17 16.15-0.02z m469-322.7l-0.35 16.67h17.01c61.02 0 133.24 36.12 193.23 96.62 58.15 58.61 92.53 128.58 91.92 187.1l-0.18 15.36 15.27 1.13c23.18 1.82 39.5 2.87 62.15 2.94l16.17 0.09 0.26-16.17c1.38-82.04-41.5-173.98-117.79-251.86-78.53-80.38-176.66-128.45-262.27-128.8l-16.99-0.09 1.22 37.25c0.44 11.55 0.69 18.49 0.35 39.69v0.07zM468 875.34l0.35-16.67h-17.01c-61.74 0-134.72-36.47-195.14-97.41-57.73-58.25-91.84-127.62-91.31-185.52l0.18-15.27-15.29-1.22c-23.27-1.82-39.69-2.94-62.41-2.94H71.4l-0.35 16.02c-1.38 81.44 41.32 172.59 117.19 250.11 79.08 80.74 177.94 129.18 264.4 129.53l16.92 0.09-1.22-36.75c-0.44-11.76-0.69-18.58-0.35-39.94l0.01-0.03zM936.56 559.1c-22.74 0.09-39.06 1.13-62.24 2.94l-15.27 1.22 0.18 15.27c0.6 57.48-33.34 126.31-90.62 184.14-60.42 60.86-133.33 97.24-195.05 97.24h-0.26l-16.76-0.09 0.35 16.67c0.35 21.27 0.09 28.05-0.35 39.69l-1.22 36.75 16.92-0.09c86.54-0.35 185.32-48.79 264.23-129.44 75.42-76.92 117.88-167.58 116.49-248.29l-0.26-16.17h-16.17l0.03 0.16z m-261.62-67.62H545.58l77.6-233.02-258.9 258.93h129.36l-103.5 233.02 284.8-258.93z" fill="#ffffff"></path>
        </svg>
    </g>
</svg>