<svg width="28" height="28" xmlns="http://www.w3.org/2000/svg">
    <g>
        <rect fill="#ff8b08" rx="6" height="28" width="28"/>
        <svg x="5" y="5" viewBox="0 0 1024 1024" xmlns="http://www.w3.org/2000/svg" width="18" height="18">
            <path d="M716.8 102.4c112.93184 0 204.8 91.87328 204.8 204.8v409.6c0 112.92672-91.86816 204.8-204.8 204.8H307.2c-112.93184 0-204.8-91.87328-204.8-204.8V307.2c0-112.92672 91.86816-204.8 204.8-204.8h409.6m0-51.2H307.2c-141.37856 0-256 114.61632-256 256v409.6c0 141.38368 114.62144 256 256 256h409.6c141.3888 0 256-114.61632 256-256V307.2c0-141.38368-114.6112-256-256-256z"
                  fill="#ffffff"></path>
            <path d="M680.96 138.24h-102.4v102.4c0 113.10592 91.68896 204.8 204.8 204.8h102.4V343.04c0-113.10592-91.68896-204.8-204.8-204.8zM249.98912 751.104c-21.248 0-34.82112-5.12-49.664-19.968l29.44-29.18912c5.63712 5.632 10.24512 9.216 20.224 9.216 13.82912 0 23.808-7.68 23.808-25.088v-118.78912h44.8V687.104c0.00512 43.264-34.29888 64-68.608 64zM404.86912 751.104c-27.904 0-50.688-5.12-69.12-24.064l28.672-28.672c9.47712 9.472 26.11712 12.8 40.70912 12.8 17.65888 0 26.112-5.888 26.112-16.384 0-4.352-1.01888-7.936-3.57888-10.752-2.30912-2.304-6.14912-4.096-12.03712-4.864l-22.016-3.072c-16.128-2.304-28.42112-7.68-36.608-16.128-8.448-8.704-12.54912-20.99712-12.54912-36.608 0-33.28 25.088-57.60512 66.56512-57.60512 26.11712 0 45.824 6.144 61.44512 21.76l-28.16 28.16c-11.52-11.52-26.62912-10.75712-34.56512-10.75712-15.616 0-22.016 8.96-22.016 16.896 0 2.304 0.768 5.632 3.57888 8.448 2.30912 2.304 6.14912 4.608 12.54912 5.376l22.016 3.072c16.384 2.304 28.16512 7.424 35.84512 15.104 9.72288 9.472 13.56288 23.04 13.56288 39.936 0 37.13024-32 57.35424-70.40512 57.35424zM619.14112 730.624c-13.312 13.312-28.672 20.48-50.944 20.48s-37.63712-7.168-50.944-20.48c-19.2-19.2-18.43712-44.8-18.43712-72.19712 0-27.392-0.76288-52.99712 18.43712-72.19712 13.312-13.312 28.672-20.48 50.944-20.48s37.63712 7.168 50.944 20.48c19.2 19.2 18.43712 44.8 18.43712 72.19712-0.00512 27.39712 0.76288 52.99712-18.43712 72.19712z m-33.024-116.99712c-3.32288-4.352-9.72288-7.936-17.92-7.936s-14.59712 3.584-17.92 7.936c-4.096 5.376-6.656 11.52-6.656 44.8s2.56 39.17312 6.656 44.54912c3.32288 4.352 9.72288 8.192 17.92 8.192s14.59712-3.84 17.92-8.192c4.096-5.376 6.656-11.264 6.656-44.54912-0.00512-33.28-2.56512-39.424-6.656-44.8zM771.72224 749.568l-58.37824-91.648v91.648h-44.80512v-182.28224h39.168l58.37312 91.65312v-91.65312h44.80512V749.568h-39.16288z"
                  fill="#ffffff"></path>
        </svg>
    </g>
</svg>
