<svg width="28" height="28" xmlns="http://www.w3.org/2000/svg">
    <g>
        <rect fill="#ED523B" rx="6" height="28" width="28"/>
        <svg x="4" y="4" viewBox="0 0 1024 1024" xmlns="http://www.w3.org/2000/svg" width="20" height="20">
            <path d="M880.96 269.09L537.83 70.9c-15.93-9.2-35.72-9.2-51.66 0L143.04 269.09c-15.92 9.2-25.81 26.33-25.81 44.72V710.2c0 18.39 9.89 35.53 25.81 44.72L486.17 953.1c7.97 4.6 16.9 6.9 25.83 6.9s17.86-2.3 25.83-6.9l343.13-198.18c15.93-9.19 25.82-26.33 25.82-44.72V313.81c-0.01-18.39-9.9-35.52-25.82-44.72zM512 138.56l288.05 166.37-287.57 166.28-288.34-166.38L512 138.56z m0.5 373.94zM188.73 366.95l288.01 166.19v331.93L188.73 698.73V366.95zM548.25 864.5V533.12l287.02-165.96v331.56L548.25 864.5z" fill="#fff"></path>
        </svg>
    </g>
</svg>

