<svg width="28" height="28" xmlns="http://www.w3.org/2000/svg">
    <g>
        <rect fill="#0edb7a" rx="6" height="28" width="28"/>
        <svg x="4" y="4" viewBox="0 0 1024 1024" xmlns="http://www.w3.org/2000/svg" width="20" height="20">
            <path d="M129.419087 475.635906c20.705764-0.08063 35.509417-1.019969 56.614299-2.753512l13.779653-1.10463-0.161259-13.856252c-0.548283-53.542299 30.788535-117.324598 83.859149-170.866898 54.566299-55.037984 120.15874-87.87452 175.66841-87.87452h15.27937l-0.24189-15.11811c-0.391055-19.685795-0.076598-25.906394 0.318488-36.847874l1.100599-33.30822-15.351937 0.08063c-77.71515 0.314457-166.770898 44.011843-238.112252 116.92548-69.684409 71.184126-108.89474 155.039244-107.636914 230.07748l0.237858 14.646426h14.646426z m425.431685-292.67452l-0.314457 15.11811h15.432567c55.352441 0 120.864252 32.755906 175.273323 87.636661 52.756157 53.151244 83.935748 116.615055 83.387464 169.68567l-0.157228 13.936882 13.860283 1.024c21.02022 1.652913 35.823874 2.596283 56.376441 2.676913l14.646426 0.08063 0.233826-14.646425c1.261858-74.409323-37.638047-157.796787-106.850771-228.424567-71.180094-72.913638-160.235843-116.538457-237.950992-116.852914l-15.355969-0.080629 1.10463 33.783937c0.391055 10.469795 0.628913 16.771024 0.314457 36.061732z m-81.101607 659.605165l0.314457-15.11811h-15.432567c-55.985386 0-122.20674-33.070362-177.010898-88.346205-52.361071-52.832756-83.306835-115.744252-82.831118-168.266582l0.157229-13.860284-13.860284-1.100598c-21.10085-1.652913-35.985134-2.676913-56.614299-2.676914h-14.489197l-0.314457 14.565796c-1.257827 73.857008 37.480819 156.534929 106.302489 226.852283 71.728378 73.228094 161.417071 117.163339 239.841763 117.477795l15.351937 0.08063-1.100598-33.38885c-0.395087-10.627024-0.628913-16.851654-0.314457-36.218961z m425.04063-286.849008c-20.633197 0.08063-35.43685 1.024-56.461102 2.676914l-13.856252 1.100598 0.16126 13.860284c0.548283 52.127244-30.23622 114.567055-82.210268 167.008755-54.800126 55.191181-120.944882 88.188976-176.926236 88.188977h-0.237858l-15.198741-0.08063 0.318489 15.11811c0.314457 19.290709 0.08063 25.434709-0.314457 36.061732l-1.10463 33.388851 15.355969-0.08063c78.501291-0.314457 168.109354-44.253732 239.684535-117.401197 68.426583-69.765039 106.92737-151.967244 105.665512-225.19937l-0.233827-14.642394h-14.646425zM483.348157 528.529134h61.278741l-6.450394-25.398425c-8.062992-29.833071-15.722835-65.713386-23.785827-96.352756h-1.612598c-7.256693 31.445669-15.319685 66.519685-22.979528 96.352756l-6.450394 25.398425z m92.32126 124.573228l-17.335433-68.938582h-88.692913l-17.335433 68.938582h-73.373229l93.12756-299.943307h86.274015l93.127559 299.943307h-75.792126z"
                  fill="#ffffff"></path>
        </svg>
    </g>
</svg>