<svg width="28" height="28" xmlns="http://www.w3.org/2000/svg">
    <g>
        <rect fill="#566Eff" rx="6" height="28" width="28"/>
        <svg x="5" y="6" viewBox="0 0 1024 1024" xmlns="http://www.w3.org/2000/svg" width="17" height="17">
            <path d="M85.333333 0l84.010667 924.458667L533.290667 1024l364.032-99.541333L981.333333 0H85.333333z m715.605334 299.605333l-267.946667 116.394667-0.64 0.256H791.466667l-29.653334 346.197333-228.394666 67.754667-0.426667-0.128v0.128L303.36 761.173333l-14.848-174.378666H402.56l7.381333 90.325333 122.026667 31.317333 1.024-0.298666v0.128l126.336-36.138667 8.661333-145.493333-134.997333-0.426667-251.861333-0.853333-8.661334-109.141334 260.522667-110.208 15.189333-6.4H262.613333l-13.610666-111.701333h563.029333l-11.093333 111.658667z"
                  fill="#ffffff"></path>
        </svg>
    </g>
</svg>