<svg width="28" height="28" xmlns="http://www.w3.org/2000/svg">
    <g>
        <rect fill="#50bC66" rx="6" height="28" width="28"/>
        <svg viewBox="0 0 1024 1024" width="16" height="16" x="6" y="6">
            <path d="M0 0v1024h1024V0H0z m942.08 942.08H81.92V81.92h860.16v860.16z" fill="#ffffff"
            ></path>
            <path d="M258.56 668.16c33.28 0 61.44-10.24 84.48-30.72 23.04-20.48 35.84-46.08 40.96-79.36h-61.44c-5.12 15.36-10.24 25.6-15.36 33.28-10.24 15.36-25.6 23.04-48.64 23.04-20.48 0-38.4-7.68-51.2-25.6s-20.48-40.96-20.48-74.24c0-33.28 7.68-58.88 20.48-76.8 12.8-17.92 30.72-28.16 53.76-28.16 23.04 0 38.4 5.12 48.64 20.48 5.12 7.68 10.24 17.92 15.36 30.72h61.44c0-17.92-7.68-35.84-20.48-53.76-23.04-30.72-61.44-48.64-110.08-48.64-35.84 0-66.56 12.8-92.16 35.84C135.68 422.4 122.88 460.8 122.88 512c0 48.64 12.8 84.48 35.84 112.64 25.6 30.72 58.88 43.52 99.84 43.52zM552.96 611.84c-10.24 2.56-20.48 5.12-35.84 5.12-23.04 0-40.96-5.12-51.2-17.92-5.12-7.68-10.24-17.92-10.24-30.72h-58.88c0 30.72 10.24 53.76 33.28 71.68 23.04 17.92 51.2 25.6 89.6 25.6s66.56-7.68 87.04-25.6 30.72-40.96 30.72-66.56-7.68-46.08-25.6-61.44c-10.24-7.68-28.16-15.36-51.2-20.48l-51.2-12.8c-20.48-5.12-33.28-7.68-38.4-12.8-10.24-5.12-12.8-12.8-12.8-23.04s5.12-20.48 15.36-25.6 23.04-10.24 38.4-10.24 25.6 2.56 35.84 7.68c15.36 7.68 23.04 20.48 23.04 38.4h58.88c0-30.72-12.8-56.32-33.28-71.68-20.48-15.36-48.64-25.6-79.36-25.6-38.4 0-66.56 7.68-84.48 25.6-17.92 17.92-28.16 38.4-28.16 66.56s10.24 51.2 30.72 64c12.8 7.68 33.28 15.36 64 23.04l30.72 7.68c17.92 5.12 30.72 7.68 40.96 12.8 7.68 5.12 12.8 12.8 12.8 23.04-5.12 15.36-12.8 28.16-30.72 33.28zM801.28 660.48l99.84-296.96h-64L773.12 588.8l-64-225.28h-66.56L742.4 660.48z"
                  fill="#ffffff"></path>
        </svg>
    </g>
</svg>