<svg width="28" height="28" xmlns="http://www.w3.org/2000/svg">
    <g>
        <rect fill="#ff67bb" rx="6" height="28" width="28"/>
        <svg x="5" y="5" viewBox="0 0 1024 1024" xmlns="http://www.w3.org/2000/svg" width="18" height="18">
            <path d="M553.536 622.528c-42.944 57.728-43.648 121.792-10.56 166.144 11.968 16.192 13.376 33.792-2.112 46.464-23.936 19.008-54.208 13.376-79.552 4.928-23.232-7.04-25.344-31.68-17.6-52.8 21.824-58.432-19.008-119.68 10.56-177.408 3.52-7.744-4.224-11.968-11.264-13.376a176 176 0 0 0-20.416-3.52c-30.976-2.816-76.736-36.608-88.704-8.448-22.528 51.392-80.96 102.784-31.68 169.664 5.632 8.448 7.744 20.416 19.008 23.232 21.824 5.632 33.792 18.304 30.272 40.832-2.816 16.896-16.192 26.752-33.792 26.752-23.936 0-51.392 5.632-62.656-23.936-19.008-50.688-47.872-97.856-50.688-154.176-80.256 45.056-80.256 45.056-52.8 121.792 2.816 9.152 2.112 20.416 16.192 23.232 21.12 4.928 33.792 19.008 28.864 41.536-4.928 22.528-23.936 27.456-44.352 28.16-23.232 0.704-49.28 0.704-56.32-26.048-14.08-51.392-23.936-104.192-34.496-156.992-2.112-9.152 0.704-25.344 6.336-28.864 83.776-49.28 55.616-126.72 56.32-209.088-26.048 26.048-37.312 52.096-61.952 64.064-11.264 4.928-23.936 11.968-31.68-1.408-6.336-10.56 1.408-19.008 11.264-25.344a62.848 62.848 0 0 0 28.864-35.904C89.6 385.28 136.768 333.184 209.28 302.208a33.6 33.6 0 0 0 19.008-31.68c-0.704-49.28-4.224-64.768 13.376-95.744 15.488-26.752 46.464-40.832 79.552-35.904 95.744 15.488 69.696 133.056 79.552 113.344 7.04-14.08 1.408-7.744 9.152-23.232 17.6-33.792 53.504-64.064 96.448-66.176 34.496-1.408 46.464 24.64 60.544 55.616 9.856 21.824 10.56 49.984 18.304 88.704 6.336 33.088 10.56 44.352 33.792 50.688 48.576 14.08 76.736-41.536 99.264-82.368 9.856-17.6-3.52-19.712-14.08-24.64-16.896-7.04-23.232-20.416-20.416-37.312 2.816-17.6 14.784-28.864 31.68-27.456 28.16 2.112 40.128-30.272 63.36-30.272 68.992 0 132.352 28.864 195.712 51.392 30.976 10.56 24.64 57.024 11.264 89.408-6.336 14.784-19.008 19.008-34.496 15.488-69.696-15.488-126.72 19.008-142.208 88.704-4.224 20.416-9.152 40.832-9.152 61.248-1.408 55.616-25.344 94.336-76.736 118.976-49.984 24.64-66.88 71.104-50.688 124.608 5.632 19.712 9.152 40.128 14.08 60.544 5.632 21.824 3.52 48.576 40.832 45.056 18.304-1.408 30.976 14.08 30.272 34.496-0.704 21.12-14.784 29.568-33.088 33.792-59.84 13.376-94.336-3.52-97.152-64.064-2.112-71.104-71.808-109.824-73.92-192.896z"
                  fill="#fff"></path>
        </svg>
    </g>
</svg>