<svg width="28" height="28" xmlns="http://www.w3.org/2000/svg">
    <g>
        <rect fill="#fE5698" rx="6" height="28" width="28"/>
        <svg x="5.5" y="5.5" viewBox="0 0 1024 1024" width="20" height="20">
            <path d="M784.554 876.615l-45.533 45.533c-50.47 50.47-132.209 50.47-182.679 0s-50.47-132.209 0-182.679l45.533-45.533a32.118 32.118 0 0 1 45.533 0 32.118 32.118 0 0 1 0 45.533l-45.533 45.533c-25.235 25.235-25.235 65.83 0 91.065s65.83 25.235 91.065 0l45.533-45.533a32.118 32.118 0 0 1 45.533 0c13.165 12.617 13.165 33.463 0.548 46.081z"
                  fill="#fff"></path>
            <path d="M807.594 716.428l-91.614 91.614a32.118 32.118 0 0 1-45.533 0 32.118 32.118 0 0 1 0-45.533l91.065-91.065a32.118 32.118 0 0 1 45.533 0c13.167 12.069 13.167 32.367 0.549 44.984z"
                  fill="#fff"></path>
            <path d="M921.7 739.469l-45.533 45.533a32.118 32.118 0 0 1-45.533 0 32.118 32.118 0 0 1 0-45.533l45.533-45.533c25.235-25.235 25.235-65.83 0-91.065s-65.83-25.235-91.065 0l-45.533 45.533c-12.617 12.617-32.915 12.617-45.533 0s-12.617-32.915 0-45.533l45.533-45.533c50.47-50.47 132.209-50.47 182.679 0 50.471 50.47 49.922 131.661-0.548 182.131z"
                  fill="#fff"></path>
            <path d="M496.79 751.928c12.028-12.028 3.508-32.594-13.5-32.594H269c-22.645 0-40.999-18.357-40.999-40.999l123-205.001c33.865-2.623 87.29 7.709 164 82.001l164-287c22.645 0 40.999 18.357 40.999 40.999v173.291c0 17.011 20.566 25.529 32.594 13.5l41.611-41.611a26.62 26.62 0 0 0 7.796-18.822V145.334c0-45.288-36.713-82.001-82.001-82.001H146c-45.288 0-82.001 36.713-82.001 82.001v574.001c0 45.286 36.713 81.999 82.001 81.999h290.359c7.059 0 13.83-2.805 18.822-7.796l41.609-41.61zM187.014 269.89c-0.851-46.532 37.053-84.417 83.584-83.542 43.852 0.824 79.627 36.617 80.429 80.47 0.851 46.532-37.053 84.417-83.584 83.542-43.853-0.824-79.628-36.617-80.429-80.47z"
                  fill="#fff"></path>
        </svg>
    </g>
</svg>