<svg width="28" height="28" xmlns="http://www.w3.org/2000/svg">
    <g>
        <rect fill="#795DFF" rx="6" height="28" width="28"/>
        <svg viewBox="0 0 1024 1024" xmlns="http://www.w3.org/2000/svg" width="26" height="26" x="1" y="1">
            <path d="M831.18214 664.977983a89.305023 89.305023 0 0 1-89.382598 89.258478H282.210698a89.305023 89.305023 0 0 1-89.382598-89.258478V359.019845a89.305023 89.305023 0 0 1 89.382598-89.242963h459.588844a89.305023 89.305023 0 0 1 89.382598 89.242963v305.958138z"
                  fill="#FFFFFF"></path>
            <path d="M538.023974 538.343585c-7.571378 13.374032-19.61111 21.628075-32.969627 21.628076-18.261295 0-28.935696-13.901546-28.935696-34.490109 0-40.49446 36.382953-47.879656 70.811001-47.879656v10.317554c0 18.525052 0.449938 33.962595-8.905678 50.424135z m8.905678-98.81579c-27.616911 3.087509-63.689562 5.135504-89.537749 16.477056-29.851088 12.862033-50.780983 39.113614-50.780984 77.715229 0 49.415653 31.185388 74.100206 71.276455 74.100206 33.853989 0 52.363525-7.974771 78.522015-34.552169 8.641921 12.48967 11.465673 18.540567 27.291094 31.681873 3.552962 1.90836 8.083377 1.706663 11.248461-1.101574l0.124121 0.108606c9.495253-8.45574 26.79461-23.443344 36.522589-31.588782 3.863265-3.149569 3.180599-8.300588 0.155151-12.613791-8.719497-12.008702-17.966507-21.767711-17.966507-44.062937v-74.069176c0-31.4026 2.218662-60.245206-20.94541-81.842251-18.261295-17.501054-48.562321-23.676071-71.710878-23.676071-45.319661 0-95.883433 16.895964-106.480259 72.812452-1.117089 5.94229 3.196114 9.045314 7.105924 9.929676l46.157478 4.995868c4.313203-0.232727 7.431742-4.468354 8.269558-8.735012 3.956355-19.254262 20.107594-28.547818 38.275798-28.547818 9.79004 0 20.929895 3.599508 26.732549 12.350034 6.687016 9.774525 5.787139 23.164072 5.787139 34.505624v6.112957m100.134576 186.615847a321.84562 321.84562 0 0 1-123.236587 25.181037c-58.724724 0-115.587634-16.089178-161.574445-42.821727-4.018416-2.327268-6.997318 1.784239-3.646053 4.809686 42.620031 38.446464 98.939911 61.53296 161.465839 61.532961 44.621481 0 96.457492-14.025667 132.204326-40.370339 5.88023-4.359748 0.822301-10.907128-5.21308-8.331618"
                  fill="#795DFF"></path>
            <path d="M682.438698 605.880897c-3.90981-4.794172-37.422466-8.936708-57.871393 5.430291-3.149569 2.218662-2.622055 5.24411 0.884362 4.825202 11.512218-1.36533 37.174224-4.421809 41.735669 1.396361 4.57696 5.864715-5.073444 29.959694-9.386646 40.711671-1.318785 3.258175 1.489451 4.561445 4.452839 2.110056 19.145656-16.058148 24.110494-49.617349 20.185169-54.473581"
                  fill="#795DFF"></path>
        </svg>
    </g>
</svg>