<svg width="28" height="28" xmlns="http://www.w3.org/2000/svg">
    <g>
        <rect fill="#1eabfa" rx="6" height="28" width="28"/>
        <svg x="5" y="5" viewBox="0 0 1024 1024" xmlns="http://www.w3.org/2000/svg" width="18" height="18">
            <path d="M731.610973 577.117207h10.214463c5.107232-5.107232 5.107232-10.214464 10.214464-10.214464 56.179551-71.501247 35.750623-117.466334-51.072319-132.78803-71.501247-15.321696-143.002494-25.53616-219.610973-35.750623-10.214464 0-15.321696-10.214464-10.214463-15.321696L532.428928 20.428928c0-15.321696-15.321696-25.53616-25.53616-10.214464-127.680798 163.431421-255.361596 321.755611-377.935162 485.187032-40.857855 51.072319-15.321696 97.037406 45.965087 112.359103a1464.754115 1464.754115 0 0 0 158.32419 25.536159l76.608479 10.214464c10.214464 0 15.321696 10.214464 10.214463 15.321696l-56.179551 347.29177c0 15.321696 15.321696 25.53616 25.53616 10.214464 45.965087-56.179551 91.930175-107.25187 132.78803-163.431421a217.057357 217.057357 0 0 1-10.214464-56.179551 221.143142 221.143142 0 0 1 219.610973-219.610973z"
                  fill="#ffffff"></path>
            <path d="M731.610973 607.760599a188.456858 188.456858 0 0 0-188.967581 188.967581 185.392519 185.392519 0 0 0 188.967581 188.967581 188.967581 188.967581 0 0 0 0-377.935162z m122.573566 204.289276a11.23591 11.23591 0 0 1-10.214464 10.214464h-81.715711v81.715711a11.23591 11.23591 0 0 1-10.214464 10.214464H716.289277a11.23591 11.23591 0 0 1-10.214464-10.214464v-81.715711h-81.715711a11.23591 11.23591 0 0 1-10.214464-10.214464v-35.750623a11.23591 11.23591 0 0 1 10.214464-10.214464h81.715711v-81.715711a11.23591 11.23591 0 0 1 10.214464-10.214464h35.750623a11.23591 11.23591 0 0 1 10.214464 10.214464V766.084788h81.715711a11.23591 11.23591 0 0 1 10.214464 10.214464z"
                  fill="#ffffff"></path>
        </svg>
    </g>
</svg>