<svg width="28" height="28" xmlns="http://www.w3.org/2000/svg">
    <g>
        <rect fill="#000" rx="6" height="28" width="28"/>
        <svg x="5" y="5" width="18" height="18" viewBox="0 0 1024 1024" xmlns="http://www.w3.org/2000/svg">
            <path d="M476 72.00000031L300.00000031 327.99999969v164.00000062H195.99999969V327.99999969L32 72.00000031h120l103.99999969 163.99999969L360.00000031 72.00000031h115.99999969z"
                  fill="#fff"></path>
            <path d="M651.99999969 399.99999969h-192l-39.99999938 92.00000062H336.00000031L516.00000031 72.00000031h87.99999938l172.00000031 420h-91.99999969l-32.00000062-92.00000062z m-31.99999969-84l-60-156-64.00000031 156h124.00000031z"
                  fill="#F67138"></path>
            <path d="M195.99999969 540.00000031V951.99999969h88.00000031v-283.99999969l91.99999969 192h72l96-199.99999969V951.99999969h84V540.00000031H512l-103.99999969 187.99999969L312.00000031 540.00000031H195.99999969zM992 864.00000031h-220.00000031v-324h-87.99999938V951.99999969H992v-87.99999938z"
                  fill="#fff"></path>
        </svg>
    </g>
</svg>