<svg width="28" height="28" xmlns="http://www.w3.org/2000/svg">
    <g>
        <rect fill="#11a9cc" rx="6" height="28" width="28"/>
        <svg x="6" y="3.5" viewBox="0 0 1285 1024" xmlns="http://www.w3.org/2000/svg" width="20" height="20">
            <path d="M865.103448 1024H158.896552a141.241379 141.241379 0 0 1-141.24138-141.241379V247.172414a141.241379 141.241379 0 0 1 141.24138-141.24138v52.965518a123.586207 123.586207 0 0 0 247.172414 0V105.931034h211.862068v52.965518a123.586207 123.586207 0 0 0 247.172414 0V105.931034a141.241379 141.241379 0 0 1 141.24138 141.24138v635.586207a141.241379 141.241379 0 0 1-141.24138 141.241379z m35.310345-600.275862a70.62069 70.62069 0 0 0-70.62069-70.62069H194.206897a70.62069 70.62069 0 0 0-70.62069 70.62069v423.724138a70.62069 70.62069 0 0 0 70.62069 70.62069h635.586206a70.62069 70.62069 0 0 0 70.62069-70.62069V423.724138z m-247.172414 247.172414h141.24138v141.241379h-141.24138v-141.241379z m0-211.862069h141.24138v141.241379h-141.24138v-141.241379z m-211.862069 211.862069h141.24138v141.241379h-141.24138v-141.241379z m0-211.862069h141.24138v141.241379h-141.24138v-141.241379z m-211.862069 211.862069h141.24138v141.241379H229.517241v-141.241379z m0-211.862069h141.24138v141.241379H229.517241v-141.241379z m512-247.172414A52.965517 52.965517 0 0 1 688.551724 158.896552v-105.931035a52.965517 52.965517 0 0 1 105.931035 0v105.931035A52.965517 52.965517 0 0 1 741.517241 211.862069z m-459.034482 0A52.965517 52.965517 0 0 1 229.517241 158.896552v-105.931035a52.965517 52.965517 0 0 1 105.931035 0v105.931035A52.965517 52.965517 0 0 1 282.482759 211.862069z"
                  fill="#ffffff"></path>
        </svg>
    </g>
</svg>