<svg width="28" height="28" xmlns="http://www.w3.org/2000/svg">
    <g>
        <rect fill="#FF5166" rx="6" height="28" width="28"/>
        <svg x="5.5" y="5.5" width="18" height="18" viewBox="0 0 1024 1024">
            <path d="M305.265778 851.911111H196.721778c-25.884444 0-46.933333-20.081778-46.933334-44.771555V159.971556c0-24.689778 21.048889-44.771556 46.933334-44.771556h521.500444c25.941333 0 46.933333 20.081778 46.933334 44.828444v186.254223a399.758222 399.758222 0 0 1 83.399111 31.004444v-217.315555c0-68.721778-58.368-124.416-130.332445-124.416H196.721778c-71.964444 0-130.332444 55.751111-130.332445 124.472888v647.054223c0 68.778667 58.368 124.472889 130.332445 124.472889h156.444444a368.867556 368.867556 0 0 1-47.900444-79.644445z"
                  fill="#ffffff"></path>
            <path d="M666.055111 901.688889c-112.298667 0-203.377778-86.926222-203.377778-194.104889 0-107.235556 91.022222-194.161778 203.377778-194.161778s203.377778 86.926222 203.377778 194.104889c0 107.235556-91.022222 194.161778-203.377778 194.161778z m0 79.644444c158.435556 0 286.833778-122.595556 286.833778-273.806222 0-151.153778-128.398222-273.749333-286.833778-273.749333-158.378667 0-286.776889 122.595556-286.776889 273.806222 0 151.153778 128.398222 273.749333 286.776889 273.749333z"
                  fill="#ffffff"></path>
            <path d="M624.355556 613.660444c0-10.979556 9.329778-19.911111 20.878222-19.911111h41.699555c11.491556 0 20.878222 8.931556 20.878223 19.911111v75.605334l73.841777 60.416a19.342222 19.342222 0 0 1 2.275556 28.103111l-27.136 30.208a21.560889 21.560889 0 0 1-29.411556 2.161778l-95.744-78.336a19.569778 19.569778 0 0 1-7.281777-15.132445v-102.968889zM274.944 284.444444c0 10.979556 9.386667 19.911111 20.878222 19.911112h323.299556A20.423111 20.423111 0 0 0 640 284.444444v-39.822222a20.423111 20.423111 0 0 0-20.878222-19.911111H295.822222a20.423111 20.423111 0 0 0-20.878222 19.911111V284.444444zM274.944 443.733333c0 10.979556 9.386667 19.911111 20.878222 19.911111h140.8a20.423111 20.423111 0 0 0 20.878222-19.911111v-39.822222a20.423111 20.423111 0 0 0-20.878222-19.911111H295.822222a20.423111 20.423111 0 0 0-20.878222 19.911111v39.822222z"
                  fill="#ffffff"></path>
        </svg>
    </g>
</svg>